<svg xmlns="http://www.w3.org/2000/svg" viewBox="0 0 167.27 137.69"><defs><style>.cls-1{fill:#007aff;}.cls-2{fill:none;}</style></defs><g id="Layer_2" data-name="Layer 2"><g id="icon"><rect class="cls-1" x="158.69" y="60.55" width="0.83" height="27.71"/><path class="cls-1" d="M150.93,129.93H17.2a9.44,9.44,0,0,1-9.44-9.44V28.12A15,15,0,0,1,0,15v105.5a17.22,17.22,0,0,0,17.2,17.2H154.81a3.88,3.88,0,0,0,3.88-3.88V96h-7.76Z"/><path class="cls-1" d="M154.81,30h-3.88v22.8h7.76V26.11A3.88,3.88,0,0,1,154.81,30Z"/><path class="cls-1" d="M163.39,52.79h-4.7v7.76h.83V88.26h-.83V96h4.7a3.87,3.87,0,0,0,3.88-3.88V56.67A3.88,3.88,0,0,0,163.39,52.79Z"/><path class="cls-1" d="M100.68,60.55h50.25V52.79H96.8a3.88,3.88,0,0,0-3.88,3.88V92.13A3.88,3.88,0,0,0,96.8,96h54.13V88.26H100.68Z"/><rect class="cls-1" x="150.93" y="88.26" width="7.76" height="7.76"/><rect class="cls-1" x="150.93" y="52.79" width="7.76" height="7.76"/><path class="cls-2" d="M116.92,72.3A2.11,2.11,0,1,0,119,74.4,2.11,2.11,0,0,0,116.92,72.3Z"/><path class="cls-1" d="M116.92,64.54a9.87,9.87,0,1,0,9.86,9.86A9.88,9.88,0,0,0,116.92,64.54Zm0,12A2.11,2.11,0,1,1,119,74.4,2.11,2.11,0,0,1,116.92,76.51Z"/><path class="cls-1" d="M150.93,30V22.23H15A7.21,7.21,0,0,1,8.9,18.87H7.76v9.25A14.85,14.85,0,0,0,15,30Z"/><path class="cls-1" d="M3.88,11.12h5A7.21,7.21,0,0,1,15,7.76H150.93v3.36h3.88A3.88,3.88,0,0,1,158.69,15V3.88A3.88,3.88,0,0,0,154.81,0H15A15,15,0,0,0,0,15,3.88,3.88,0,0,1,3.88,11.12Z"/><path class="cls-1" d="M154.81,11.12h-3.88V30h3.88a3.88,3.88,0,0,0,3.88-3.88V15A3.88,3.88,0,0,0,154.81,11.12Z"/><path class="cls-1" d="M7.76,28.12V18.87H8.9a7.16,7.16,0,0,1,0-7.75h-5A3.88,3.88,0,0,0,0,15,15,15,0,0,0,7.76,28.12Z"/></g></g></svg>