<svg xmlns="http://www.w3.org/2000/svg" viewBox="0 0 27.77 25.23"><defs><style>.cls-1{fill:#007aff;}</style></defs><g id="Layer_2" data-name="Layer 2"><g id="Isolation_Mode" data-name="Isolation Mode"><path class="cls-1" d="M1.5,5.3A3.79,3.79,0,0,1,8.87,4.05a11.86,11.86,0,0,1,1.38-.58,5.29,5.29,0,1,0-6.78,6.78,11.86,11.86,0,0,1,.58-1.38A3.79,3.79,0,0,1,1.5,5.3Z"/><path class="cls-1" d="M27.77,5.3A5.29,5.29,0,0,0,17.52,3.47a10.56,10.56,0,0,1,1.38.58,3.79,3.79,0,1,1,4.82,4.82,11.92,11.92,0,0,1,.59,1.38A5.29,5.29,0,0,0,27.77,5.3Z"/><path class="cls-1" d="M23.44,13.89a9.55,9.55,0,0,1-19.1,0A9.46,9.46,0,0,1,5,10.56a4.82,4.82,0,0,1-1.48-.31,11,11,0,0,0,3.16,12L7,21.64a.75.75,0,1,1,1.25.82l-.42.65a11,11,0,0,0,12.13,0l-.42-.65a.75.75,0,0,1,.22-1,.77.77,0,0,1,1,.22l.36.56a11,11,0,0,0,3.16-11.95,5,5,0,0,1-1.48.31A9.69,9.69,0,0,1,23.44,13.89Z"/><path class="cls-1" d="M9.06,5.66c0-.12,0-.24,0-.36a3.74,3.74,0,0,0-.23-1.25A11.11,11.11,0,0,0,4.05,8.87,3.74,3.74,0,0,0,5.3,9.1c.12,0,.24,0,.36,0A9.71,9.71,0,0,1,9.06,5.66Z"/><path class="cls-1" d="M13.89,4.34A9.41,9.41,0,0,1,17.21,5a5.49,5.49,0,0,1,.31-1.48,10.8,10.8,0,0,0-7.27,0A4.82,4.82,0,0,1,10.56,5,9.46,9.46,0,0,1,13.89,4.34Z"/><path class="cls-1" d="M18.71,5.66a9.63,9.63,0,0,1,3.4,3.4c.12,0,.24,0,.36,0a3.7,3.7,0,0,0,1.25-.23A11.11,11.11,0,0,0,18.9,4.05a3.74,3.74,0,0,0-.23,1.25C18.67,5.42,18.7,5.54,18.71,5.66Z"/><path class="cls-1" d="M9.1,5.3c0,.12,0,.24,0,.36A9.34,9.34,0,0,1,10.56,5a4.82,4.82,0,0,0-.31-1.48,11.86,11.86,0,0,0-1.38.58A3.74,3.74,0,0,1,9.1,5.3Z"/><path class="cls-1" d="M5.66,9.06c-.12,0-.24,0-.36,0a3.74,3.74,0,0,1-1.25-.23,11.86,11.86,0,0,0-.58,1.38A4.82,4.82,0,0,0,5,10.56,9.34,9.34,0,0,1,5.66,9.06Z"/><path class="cls-1" d="M22.47,9.1c-.12,0-.24,0-.36,0a10.34,10.34,0,0,1,.72,1.5,5,5,0,0,0,1.48-.31,11.92,11.92,0,0,0-.59-1.38A3.7,3.7,0,0,1,22.47,9.1Z"/><path class="cls-1" d="M18.71,5.66c0-.12,0-.24,0-.36a3.74,3.74,0,0,1,.23-1.25,10.56,10.56,0,0,0-1.38-.58A5.49,5.49,0,0,0,17.21,5,9,9,0,0,1,18.71,5.66Z"/><path class="cls-1" d="M13.89,5.82a.75.75,0,0,0-.75.75v6.57H9.68a.75.75,0,0,0,0,1.5h4.21a.76.76,0,0,0,.75-.75V6.57A.76.76,0,0,0,13.89,5.82Z"/><path class="cls-1" d="M5.41,24.07a.75.75,0,0,0,.22,1,.75.75,0,0,0,.41.12.77.77,0,0,0,.63-.34l1.15-1.78a11.7,11.7,0,0,1-1.19-.91Z"/><path class="cls-1" d="M8,21.42a.75.75,0,0,0-1,.22l-.36.56a11.7,11.7,0,0,0,1.19.91l.42-.65A.75.75,0,0,0,8,21.42Z"/><path class="cls-1" d="M21.11,24.89a.74.74,0,0,0,.63.34.78.78,0,0,0,.41-.12.76.76,0,0,0,.22-1L21.15,22.2a11.82,11.82,0,0,1-1.2.91Z"/><path class="cls-1" d="M19.75,21.42a.75.75,0,0,0-.22,1l.42.65a11.82,11.82,0,0,0,1.2-.91l-.36-.56A.77.77,0,0,0,19.75,21.42Z"/></g></g></svg>