<svg xmlns="http://www.w3.org/2000/svg" viewBox="0 0 256.86 85.04"><defs><style>.cls-1{fill:#222;fill-rule:evenodd;}</style></defs><g id="Layer_2" data-name="Layer 2"><g id="Layer_1-2" data-name="Layer 1"><path class="cls-1" d="M102.08,3c-.45-1.84-1.77-2.77-4-2.77H80.53a3.81,3.81,0,0,0-4,2.77L55.68,82.19C55.15,84,55.68,85,57.26,85H70a2.6,2.6,0,0,0,1.91-.6,4,4,0,0,0,.86-2.17l3.11-12.52L99.65,56.36l2.56,11.33,3.7,14.5a4.43,4.43,0,0,0,.79,2.17,2.58,2.58,0,0,0,2,.6h12.69c1.58,0,2.11-.93,1.58-2.77ZM81.46,47.05l7.77-31.23,6.08,23.49Z"/><path class="cls-1" d="M177.42,38.81a67.15,67.15,0,0,0-20-4.48q-10.85-.93-10.84-7.12V24.7q0-5.93,1.92-8c1.27-1.37,3.72-2.05,7.33-2.05H161c3.52,0,5.95.62,7.27,1.85s2,3.56,2,7v.79a2.45,2.45,0,0,0,2.78,2.76H184.3a2.44,2.44,0,0,0,2.77-2.76V21.8q0-10.28-5.82-15.95T165,.18H151.78q-10.32,0-16.13,5.67t-5.81,16v4.62q0,8.17,3.1,13.38a15.68,15.68,0,0,0,7.73,7,65.9,65.9,0,0,0,10,2.9,82.53,82.53,0,0,0,10,1.51,16.46,16.46,0,0,1,7.73,2.44,6.61,6.61,0,0,1,3.12,5.87v1.58q0,5.41-2.06,7.39c-1.36,1.31-3.76,2-7.2,2H156q-5.3,0-7.27-1.85c-1.33-1.23-2-3.51-2-6.86v-1A2.45,2.45,0,0,0,144,57.93H132.74A2.45,2.45,0,0,0,130,60.7v2.63q0,10.29,5.81,16T151.91,85h14.41q10.31,0,16.13-5.67t5.81-16V58.85q0-7.91-3.11-13A16.91,16.91,0,0,0,177.42,38.81Z"/><path class="cls-1" d="M253.76,45.87A16.93,16.93,0,0,0,246,38.81a67.15,67.15,0,0,0-20-4.48q-10.83-.93-10.84-7.12V24.7q0-5.93,1.92-8c1.28-1.37,3.72-2.05,7.34-2.05h5.15c3.53,0,6,.62,7.28,1.85s2,3.56,2,7v.79a2.44,2.44,0,0,0,2.77,2.76H252.9a2.44,2.44,0,0,0,2.77-2.76V21.8q0-10.28-5.81-15.95T233.6.18H220.38q-10.31,0-16.13,5.67t-5.81,16v4.62q0,8.17,3.1,13.38a15.68,15.68,0,0,0,7.73,7,66,66,0,0,0,10,2.9,82.23,82.23,0,0,0,10,1.51A16.5,16.5,0,0,1,237,53.64a6.62,6.62,0,0,1,3.11,5.87v1.58c0,3.61-.69,6.07-2.05,7.39s-3.77,2-7.21,2h-6.21q-5.3,0-7.27-1.85c-1.32-1.23-2-3.51-2-6.86v-1a2.45,2.45,0,0,0-2.77-2.77H201.34a2.45,2.45,0,0,0-2.77,2.77v2.63q0,10.29,5.82,16T220.51,85h14.41q10.31,0,16.13-5.67t5.81-16V58.85Q256.86,50.94,253.76,45.87Z"/><path class="cls-1" d="M40.75,0H2A2,2,0,0,0,0,2V83.06a2,2,0,0,0,2,2H15.2a2,2,0,0,0,2-2V53.88C24.22,50,42.8,39.83,44.2,39c1.74-1.1,14.5-5.28,14.5-21.19S40.75,0,40.75,0ZM35.89,25.86,17.18,35.28V17.2a1.61,1.61,0,0,1,1.45-1.07H34.81s4.63,0,4.63,4.73C39.44,24.44,35.89,25.86,35.89,25.86Z"/></g></g></svg>