<svg xmlns="http://www.w3.org/2000/svg" xmlns:xlink="http://www.w3.org/1999/xlink" width="270" height="130" viewBox="0 0 270 130">
  <defs>
    <style>
      .cls-1 {
        fill: none;
      }

      .cls-2 {
        fill: #f4f4f4;
      }

      .cls-3 {
        clip-path: url(#clip-path);
      }

      .cls-4 {
        fill: #fff;
        stroke: #ccc;
        stroke-linecap: round;
        stroke-width: 1.2px;
        stroke-dasharray: 3 4;
      }
    </style>
    <clipPath id="clip-path">
      <rect id="사각형_27" data-name="사각형 27" class="cls-1" width="250" height="130" transform="translate(-5.495 -0.662)"/>
    </clipPath>
  </defs>
  <g id="자동차" transform="translate(-45 -337)">
    <ellipse id="그림자" class="cls-2" cx="135" cy="20" rx="135" ry="20" transform="translate(45 422)"/>
    <g id="img_자동차" class="cls-3" transform="translate(60.495 337.662)">
      <g id="차량_샘플_img" data-name="차량 샘플 img" transform="translate(-2.516 12.367)">
        <g id="Layer_1" data-name="Layer 1" transform="translate(0.02 -3.029)">
          <path id="패스_50" data-name="패스 50" class="cls-4" d="M55.371,30.262S78.065,6.842,105.349,2.288c0,0,35.125-5.214,60.425,0,0,0,26.762,4.7,46.739,19.981,0,0,6.247,5.709,10.572,6.28,0,0,2.4,0,.481,3.425a94.87,94.87,0,0,1,4.806,10.847s3.364,9.705.481,14.272a3.451,3.451,0,0,0,.481,2.854s1.922,7.422-.961,10.847c0,0-5.767,2.854-10.572,5.138,0,0-.961,17.7-12.014,17.7l-7.208-.571s-5.767-1.713-7.689-10.276c0,0-2.2-.451-2.681-.641s-1.163-1.643-1.163-1.643l-65.356,6.851s-2.883,16.556-17.781,16.556c0,0-8.17.571-11.533-1.713A20.823,20.823,0,0,1,84.2,91.918L49.6,90.777A15.3,15.3,0,0,1,36.149,98.2s-12.014,1.142-16.82-8.563L8.757,89.064a3.072,3.072,0,0,1-2.4-1.713H1.068a1.592,1.592,0,0,1-.89-.9,2.075,2.075,0,0,1-.071-1.385,5.186,5.186,0,0,1,2.4-1.713,25.262,25.262,0,0,1,2.883-7.422S1.068,70.224,2.51,59.948c0,0,.481-6.28,3.844-10.276C6.354,49.672,15,36.542,55.371,30.262Z" transform="translate(4.98 -0.971)"/>
        </g>
      </g>
    </g>
  </g>
</svg>
