<svg xmlns="http://www.w3.org/2000/svg" width="28" height="28" viewBox="0 0 28 28"><defs><style>.a{fill:#eee;opacity:0;}.b{fill:#fff;}.c{fill:none;stroke:#222;stroke-linecap:round;stroke-linejoin:round;stroke-width:2px;}.d,.e{stroke:none;}.e{fill:#222;}</style></defs><g transform="translate(-312 -12)"><rect class="a" width="28" height="28" transform="translate(312 12)"/><g transform="translate(0 -0.719)"><g class="b" transform="translate(325 30)"><path class="d" d="M 1.5 5.5 L 0.5 5.5 L 0.5 1 C 0.5 0.7243000268936157 0.7243000268936157 0.5 1 0.5 C 1.275699973106384 0.5 1.5 0.7243000268936157 1.5 1 L 1.5 5.5 Z"/><path class="e" d="M 1 1 L 1 5 L 1.00025200843811 5 L 1.001260042190552 1.000050067901611 C 1.001260042190552 1.000050067901611 1.000859975814819 1 1 1 M 1 0 C 1.552279949188232 0 2 0.4477200508117676 2 1 L 2 6 L 0 6 L 0 1 C 0 0.4477200508117676 0.4477200508117676 0 1 0 Z"/></g><path class="c" d="M3,8.521l9.028-6.8,8.958,6.8L21,19.359a1.933,1.933,0,0,1-2,1.859H5.012a1.933,1.933,0,0,1-2-1.859Z" transform="translate(314 15)"/></g></g></svg>