<svg xmlns="http://www.w3.org/2000/svg" width="28" height="28" viewBox="0 0 28 28"><defs><style>.a{fill:#eee;opacity:0;}.b{fill:#fff;}.c{fill:none;stroke:#999;stroke-linecap:round;stroke-linejoin:round;stroke-width:1.5px;}.d,.e{stroke:none;}.e{fill:#999;}</style></defs><g transform="translate(-312 -12)"><rect class="a" width="28" height="28" transform="translate(312 12)"/><g transform="translate(0 -0.719)"><g class="b" transform="translate(325.25 30)"><path class="d" d="M 1 5.5 L 0.5 5.5 L 0.5 0.75 C 0.5 0.6121500134468079 0.6121500134468079 0.5 0.75 0.5 C 0.8878499865531921 0.5 1 0.6121500134468079 1 0.75 L 1 5.5 Z"/><path class="e" d="M 0.75 0 C 1.164209961891174 0 1.5 0.3357901573181152 1.5 0.75 L 1.5 6 L 0 6 L 0 0.75 C 0 0.3357901573181152 0.3357900381088257 0 0.75 0 Z"/></g><path class="c" d="M3,8.521l9.028-6.8,8.958,6.8L21,19.359a1.933,1.933,0,0,1-2,1.859H5.012a1.933,1.933,0,0,1-2-1.859Z" transform="translate(314 15)"/></g></g></svg>