<svg xmlns="http://www.w3.org/2000/svg" width="28" height="28" viewBox="0 0 28 28"><defs><style>.a{fill:#eee;opacity:0;}.b,.c{fill:none;}.b,.c,.d{stroke:#222;stroke-width:2px;}.b,.d{stroke-linecap:round;}.d{fill:#fff;stroke-linejoin:round;}</style></defs><g transform="translate(-312 -12)"><rect class="a" width="28" height="28" transform="translate(312 12)"/><g transform="translate(313.25 16.201)"><line class="b" x2="1.88" transform="translate(19.73 10.75)"/><path class="c" d="M23.2,7.59l-3.61-.73L17.33,1.8a2.74,2.74,0,0,0-2.15-1H7.93A2.69,2.69,0,0,0,5.63,2L4,6.9,2,7.54A2.13,2.13,0,0,0,.75,9.45v4.48a2.14,2.14,0,0,0,2.13,2.15H22.64a2.14,2.14,0,0,0,2.11-2.15V9.65A2.13,2.13,0,0,0,23.2,7.59Z"/><circle class="d" cx="2.5" cy="2.5" r="2.5" transform="translate(4.25 14.099)"/><circle class="d" cx="2.5" cy="2.5" r="2.5" transform="translate(15.75 14.099)"/></g></g></svg>