<svg xmlns="http://www.w3.org/2000/svg" width="28" height="28" viewBox="0 0 28 28">
  <g id="icon_알림" transform="translate(-270 -12)">
    <rect id="bg" width="28" height="28" transform="translate(270 12)" fill="#eee" opacity="0"/>
    <g id="bell">
      <g id="사각형_8" data-name="사각형 8" transform="translate(278 20)" fill="none" stroke="#222" stroke-width="2.2">
        <path d="M6,0H6a6,6,0,0,1,6,6v8a0,0,0,0,1,0,0H0a0,0,0,0,1,0,0V6A6,6,0,0,1,6,0Z" stroke="none"/>
        <path d="M6-1.1H6A7.1,7.1,0,0,1,13.1,6v8.947a.153.153,0,0,1-.153.153H-.947a.153.153,0,0,1-.153-.153V6A7.1,7.1,0,0,1,6-1.1Z" fill="none"/>
      </g>
      <rect id="사각형_9" data-name="사각형 9" width="20.4" height="2.2" rx="1.1" transform="translate(273.8 34)" fill="#222"/>
      <rect id="사각형_10" data-name="사각형 10" width="2.2" height="3" rx="1.1" transform="translate(283 15.8)" fill="#222"/>
    </g>
  </g>
</svg>
