<svg xmlns="http://www.w3.org/2000/svg" width="28" height="27" viewBox="0 0 28 27">
  <g id="icon_보험사_연결" data-name="icon_보험사 연결" transform="translate(-36 -252)">
    <rect id="icon" width="28" height="27" transform="translate(36 252)" fill="#e9e9e9" opacity="0"/>
    <g id="헤드폰" transform="translate(40.061 253.931)">
      <g id="그룹_2" data-name="그룹 2" transform="translate(-0.584 -0.5)">
        <path id="패스_20" data-name="패스 20" d="M50.889,273.605v7.613H45.8" transform="translate(-29.378 -258.149)" fill="none" stroke="#222" stroke-linecap="round" stroke-linejoin="round" stroke-width="1.5"/>
        <path id="headphones" d="M3,15.677v4.63a2.315,2.315,0,0,0,2.315,2.315h0A2.315,2.315,0,0,0,7.63,20.307V17.992a2.315,2.315,0,0,0-2.315-2.315H3" transform="translate(-3.477 -3.514)" fill="#ff3701"/>
        <path id="headphones-2" data-name="headphones" d="M7.63,15.677v4.63a2.315,2.315,0,0,1-2.315,2.315h0A2.315,2.315,0,0,1,3,20.307V17.992a2.315,2.315,0,0,1,2.315-2.315H7.63" transform="translate(13.893 -3.514)" fill="#ff3701"/>
        <path id="headphones-3" data-name="headphones" d="M24.989,14.968H22.546A2.44,2.44,0,0,0,20.1,17.406v2.437a2.44,2.44,0,0,0,2.443,2.437h0a2.44,2.44,0,0,0,2.443-2.437V14.968A10.994,10.994,0,0,0,3,14.968v4.875a2.44,2.44,0,0,0,2.443,2.437h0a2.44,2.44,0,0,0,2.443-2.437V17.406a2.44,2.44,0,0,0-2.443-2.437H3" transform="translate(-3.477 -2.931)" fill="none" stroke="#222" stroke-linecap="round" stroke-width="1.5"/>
      </g>
      <g id="눈코입">
        <path id="패스_21" data-name="패스 21" d="M6.9,8.614v1.5" transform="translate(0 0.635)" fill="none" stroke="#222" stroke-linecap="round" stroke-width="1.5"/>
        <path id="패스_22" data-name="패스 22" d="M6.9,8.614v1.5" transform="translate(6 0.635)" fill="none" stroke="#222" stroke-linecap="round" stroke-width="1.5"/>
        <path id="패스_23" data-name="패스 23" d="M6.9,17.346a6.371,6.371,0,0,0,6,0" transform="translate(0.039 -1.096)" fill="none" stroke="#222" stroke-linecap="round" stroke-width="1.5"/>
      </g>
    </g>
  </g>
</svg>
