<svg id="icon_car" xmlns="http://www.w3.org/2000/svg" width="14" height="14" viewBox="0 0 14 14">
  <path id="패스_33" data-name="패스 33" d="M0,0H14V14H0Z" fill="none"/>
  <path id="패스_34" data-name="패스 34" d="M12.355,13.554H3.827v.6a.6.6,0,0,1-.609.6H2.609a.6.6,0,0,1-.609-.6V8.777l1.531-4A1.218,1.218,0,0,1,4.671,4H11.51a1.218,1.218,0,0,1,1.141.775l1.531,4v5.374a.6.6,0,0,1-.609.6h-.609a.6.6,0,0,1-.609-.6ZM3.3,8.777h9.58L11.51,5.194H4.671Zm1.44,2.986a.9.9,0,1,0-.914-.9A.9.9,0,0,0,4.741,11.763Zm6.7,0a.9.9,0,1,0-.914-.9A.9.9,0,0,0,11.441,11.763Z" transform="translate(-1.091 -2.374)" fill="#bbb"/>
</svg>
