<svg xmlns="http://www.w3.org/2000/svg" width="50" height="25.764" viewBox="0 0 50 25.764">
  <defs>
    <style>
      .cls-1 {
        opacity: 0.45;
      }

      .cls-2 {
        fill: #bbb;
      }
    </style>
  </defs>
  <g id="icon" class="cls-1">
    <path id="패스_16" data-name="패스 16" class="cls-2" d="M70.789,420.488a7.061,7.061,0,0,0-5.669-2.276c-5.4,0-6.844-3.432-6.9-3.582a6.193,6.193,0,0,0-5.794-4.073H42.369a6.189,6.189,0,0,0-5.79,4.062c-.1.233-1.569,3.594-6.909,3.594A7.061,7.061,0,0,0,24,420.488a7.424,7.424,0,0,0-1.582,5.211,1.506,1.506,0,0,0,1.464,1.393,1.358,1.358,0,0,0,.157-.009,1.539,1.539,0,0,0,1.31-1.713,4.315,4.315,0,0,1,.842-2.8,4.356,4.356,0,0,1,3.478-1.245c7.5,0,9.567-5.336,9.661-5.593a3.2,3.2,0,0,1,3.038-2.063H52.421a3.2,3.2,0,0,1,3.033,2.045c.005.016.01.031.016.047.084.227,2.146,5.563,9.651,5.563a4.375,4.375,0,0,1,3.462,1.226,4.284,4.284,0,0,1,.857,2.83,1.538,1.538,0,0,0,1.311,1.7,1.358,1.358,0,0,0,.157.009,1.507,1.507,0,0,0,1.464-1.393A7.424,7.424,0,0,0,70.789,420.488Z" transform="translate(-22.395 -410.557)"/>
    <g id="그룹_99" data-name="그룹 99" transform="translate(7.352 13.819)">
      <path id="패스_17" data-name="패스 17" class="cls-2" d="M50.435,461.752a5.972,5.972,0,1,1,5.973-5.972A5.979,5.979,0,0,1,50.435,461.752Zm0-8.83a2.857,2.857,0,1,0,2.858,2.857A2.861,2.861,0,0,0,50.435,452.922Z" transform="translate(-44.462 -449.807)"/>
      <path id="패스_18" data-name="패스 18" class="cls-2" d="M111.329,461.752a5.972,5.972,0,1,1,5.972-5.972A5.979,5.979,0,0,1,111.329,461.752Zm0-8.83a2.857,2.857,0,1,0,2.857,2.857A2.861,2.861,0,0,0,111.329,452.922Z" transform="translate(-82.004 -449.807)"/>
      <path id="패스_19" data-name="패스 19" class="cls-2" d="M87.805,463.385a1.558,1.558,0,0,1-1.558-1.558v-3.082a1.558,1.558,0,0,1,3.115,0v3.082A1.558,1.558,0,0,1,87.805,463.385Z" transform="translate(-70.157 -454.314)"/>
    </g>
  </g>
</svg>
