<svg xmlns="http://www.w3.org/2000/svg" width="58" height="29.886" viewBox="0 0 58 29.886">
  <defs>
    <style>
      .cls-1 {
        opacity: 0.45;
      }

      .cls-2 {
        fill: #bbb;
      }
    </style>
  </defs>
  <g id="icon" class="cls-1">
    <path id="패스_16" data-name="패스 16" class="cls-2" d="M78.532,422.078a8.19,8.19,0,0,0-6.576-2.64c-6.26,0-7.939-3.981-8.01-4.155a7.183,7.183,0,0,0-6.722-4.725H45.565a7.179,7.179,0,0,0-6.716,4.712c-.111.271-1.82,4.169-8.015,4.169a8.19,8.19,0,0,0-6.576,2.64,8.612,8.612,0,0,0-1.835,6.045,1.747,1.747,0,0,0,1.7,1.616,1.578,1.578,0,0,0,.182-.01,1.785,1.785,0,0,0,1.52-1.987,5.005,5.005,0,0,1,.977-3.248,5.053,5.053,0,0,1,4.034-1.444c8.705,0,11.1-6.19,11.207-6.488a3.709,3.709,0,0,1,3.524-2.393h11.66a3.706,3.706,0,0,1,3.518,2.373c.006.018.012.036.019.054.1.263,2.49,6.453,11.195,6.453a5.075,5.075,0,0,1,4.016,1.422,4.969,4.969,0,0,1,.994,3.282,1.784,1.784,0,0,0,1.521,1.974,1.577,1.577,0,0,0,.182.01,1.748,1.748,0,0,0,1.7-1.616A8.612,8.612,0,0,0,78.532,422.078Z" transform="translate(-22.395 -410.557)"/>
    <g id="그룹_99" data-name="그룹 99" transform="translate(8.528 16.03)">
      <path id="패스_17" data-name="패스 17" class="cls-2" d="M51.39,463.663a6.928,6.928,0,1,1,6.928-6.928A6.936,6.936,0,0,1,51.39,463.663Zm0-10.242a3.314,3.314,0,1,0,3.315,3.314A3.318,3.318,0,0,0,51.39,453.42Z" transform="translate(-44.462 -449.807)"/>
      <path id="패스_18" data-name="패스 18" class="cls-2" d="M112.284,463.663a6.928,6.928,0,1,1,6.928-6.928A6.936,6.936,0,0,1,112.284,463.663Zm0-10.242a3.314,3.314,0,1,0,3.314,3.314A3.318,3.318,0,0,0,112.284,453.42Z" transform="translate(-78.268 -449.807)"/>
      <path id="패스_19" data-name="패스 19" class="cls-2" d="M88.055,464.377a1.807,1.807,0,0,1-1.807-1.807v-3.575a1.807,1.807,0,0,1,3.613,0v3.575A1.807,1.807,0,0,1,88.055,464.377Z" transform="translate(-67.582 -453.854)"/>
    </g>
  </g>
</svg>
