<svg xmlns="http://www.w3.org/2000/svg" width="32" height="32" viewBox="0 0 32 32">
    <g fill="none" fill-rule="evenodd" stroke="#222" stroke-linecap="round" stroke-linejoin="round" stroke-width="1.8">
        <path d="M27.087 24.42c0 1.467-1.2 2.667-2.667 2.667H7.58a2.674 2.674 0 0 1-2.666-2.667V7.58c0-1.467 1.199-2.666 2.666-2.666h16.84c1.467 0 2.667 1.199 2.667 2.666v16.84z"/>
        <path d="M20.636 21.556a2.2 2.2 0 1 0 0-4.4 2.2 2.2 0 0 0 0 4.4zM22.16 23.797l-1.525-2.158h-.016l-1.526 2.158M10 10.125h11.914M10 14.042h11.914M10 17.958h5.294M10 21.875h5.294"/>
    </g>
</svg>
