<svg xmlns="http://www.w3.org/2000/svg" width="54" height="54" viewBox="0 0 54 54">
    <g fill="none" fill-rule="evenodd">
        <path stroke="#D3D3D3" stroke-linecap="round" stroke-linejoin="round" stroke-width="1.821" d="M28 48.633c-1.989 0-3.663-1.585-5.434-3.266a19.12 19.12 0 0 0-3.176-2.611 19.76 19.76 0 0 0-3.92-1.586c-2.278-.738-4.426-1.436-5.371-3.102-.901-1.595-.436-3.816.058-6.165.356-1.442.564-2.919.62-4.404a21.842 21.842 0 0 0-.62-4.402c-.494-2.351-.96-4.569-.058-6.165.948-1.666 3.095-2.364 5.37-3.103a19.85 19.85 0 0 0 3.92-1.585 19.129 19.129 0 0 0 3.177-2.613C24.337 7.951 26.01 6.367 28 6.367c1.988 0 3.662 1.585 5.434 3.264a19.065 19.065 0 0 0 3.176 2.613 19.825 19.825 0 0 0 3.922 1.585c2.275.74 4.424 1.437 5.369 3.103.9 1.595.434 3.814-.059 6.165a22.188 22.188 0 0 0-.622 4.402c.06 1.485.266 2.962.62 4.404.495 2.35.96 4.57.06 6.165-.948 1.666-3.093 2.364-5.37 3.102a19.682 19.682 0 0 0-3.92 1.586 18.98 18.98 0 0 0-3.175 2.611c-1.773 1.681-3.447 3.266-5.435 3.266z"/>
        <path stroke="#D3D3D3" stroke-linecap="round" stroke-linejoin="round" stroke-width="3" d="M28 20.779v6.76"/>
        <path fill="#D3D3D3" d="M28 31.638c-1.027 0-1.863.849-1.863 1.892s.836 1.89 1.863 1.89c1.026 0 1.862-.847 1.862-1.89s-.836-1.892-1.862-1.892"/>
    </g>
</svg>
