<svg xmlns="http://www.w3.org/2000/svg" width="72" height="72" viewBox="0 0 72 72">
  <g id="그룹_4008" data-name="그룹 4008" transform="translate(-298 -561)">
    <circle id="타원_8" data-name="타원 8" cx="36" cy="36" r="36" transform="translate(298 561)" fill="#1d4cd8"/>
    <g id="logo02__bmw" data-name="logo02_ bmw" transform="translate(312 575)">
      <path id="Shape" d="M22.55,0A22.55,22.55,0,1,0,45.1,22.55,22.55,22.55,0,0,0,22.55,0ZM43.633,22.55A21.084,21.084,0,1,1,22.55,1.466,21.084,21.084,0,0,1,43.633,22.55Z" fill="#fff"/>
      <path id="Shape-2" data-name="Shape" d="M24.159,10.8v.733h0a12.645,12.645,0,0,1,12.63,12.63h.733A13.364,13.364,0,0,0,24.159,10.8h0m0,25.994a12.645,12.645,0,0,1-12.63-12.63H10.8A13.364,13.364,0,0,0,24.159,37.522" transform="translate(-1.609 -1.609)" fill="#fff"/>
      <g id="Group" transform="translate(6.187 2.784)">
        <path id="W" d="M38.747,14.117c.306.327.747.853.995,1.173L44.3,12.414c-.227-.3-.591-.745-.862-1.063l-2.889,1.9-.2.168L40.5,13.2l1.276-2.528-.9-.9-2.548,1.267-.214.146.171-.2L40.2,8.128c-.336-.284-.659-.545-1.071-.86l-2.9,4.526c.367.281.85.692,1.159.973l2.726-1.4.174-.128-.128.174Z" transform="translate(-11.588 -3.868)" fill="#fff"/>
        <path id="M" d="M26.339,7.785l1.247-2.773.079-.246-.022.256.131,3.706c.437.041.888.1,1.333.175l-.2-5.489q-.933-.1-1.862-.143L25.815,6.3l-.044.225L25.727,6.3,24.5,3.272q-.929.04-1.862.143l-.2,5.489c.445-.074.9-.133,1.333-.175L23.9,5.022l-.022-.256.079.246L25.2,7.785Z" transform="translate(-9.532 -3.272)" fill="#fff"/>
        <path id="B_22d" d="M14,12.933c.721-.754,1.129-1.624.408-2.456a1.409,1.409,0,0,0-1.6-.328l-.054.02.017-.047a1.3,1.3,0,0,0-.454-1.371,1.366,1.366,0,0,0-1.008-.279c-.677.069-1.2.528-2.615,2.1-.428.474-1.05,1.221-1.424,1.705l3.893,3.668C12.454,14.525,12.98,14,14,12.933Zm-5.079-.9a23.9,23.9,0,0,1,1.995-2.159,1.024,1.024,0,0,1,.407-.258.482.482,0,0,1,.579.371.85.85,0,0,1-.29.716c-.414.464-1.935,2.044-1.935,2.044Zm1.524,1.436s1.481-1.556,1.965-2.052a1.787,1.787,0,0,1,.448-.381.509.509,0,0,1,.524.01.457.457,0,0,1,.2.484,1.44,1.44,0,0,1-.383.6l-1.963,2.086Z" transform="translate(-7.271 -4.046)" fill="#fff"/>
      </g>
      <path id="Path" d="M24.159,10.8V24.159H10.8A13.357,13.357,0,0,1,24.159,10.8Z" transform="translate(-1.609 -1.609)" fill="#fff"/>
      <path id="Path-2" data-name="Path" d="M39.863,26.5A13.357,13.357,0,0,1,26.5,39.863V26.5Z" transform="translate(-3.95 -3.95)" fill="#fff"/>
    </g>
  </g>
</svg>
