<svg xmlns="http://www.w3.org/2000/svg" viewBox="0 0 36.85 36.85"><defs><style>.cls-1{fill:#cce7ff;opacity:0;}.cls-2{fill:#9a9a9a;}</style></defs><g id="Layer_2" data-name="Layer 2"><g id="Layer_2-2" data-name="Layer 2"><rect class="cls-1" width="36.85" height="36.85"/><path class="cls-2" d="M27.47,30.8H9.38a.75.75,0,0,1-.75-.75V15.44a.79.79,0,0,1,.23-.55l9.05-8.64a.76.76,0,0,1,1,0l9,8.64a.79.79,0,0,1,.23.55V30.05A.75.75,0,0,1,27.47,30.8ZM21,29.3h5.69V15.76l-8.3-7.93-8.29,7.93V29.3Z"/><path class="cls-2" d="M32.4,20.9a.73.73,0,0,1-.52-.21L18.42,7.83,5,20.69a.75.75,0,0,1-1-1.09l14-13.35a.76.76,0,0,1,1,0l14,13.35a.75.75,0,0,1,0,1.06A.73.73,0,0,1,32.4,20.9Z"/></g></g></svg>