<svg xmlns="http://www.w3.org/2000/svg" viewBox="0 0 86.43 114.79"><defs><style>.cls-1{fill:#f3f3f3;}.cls-2{fill:#c9d3dc;}.cls-3{fill:#fff;}.cls-4{fill:#007aff;}.cls-5{fill:none;stroke:#007aff;stroke-linecap:round;stroke-linejoin:round;stroke-width:2px;}</style></defs><g id="Layer_2" data-name="Layer 2"><g id="KT_배너용" data-name="KT 배너용"><rect class="cls-1" y="33.82" width="86.43" height="63.74" rx="7"/><path class="cls-2" d="M50.83,100.7V97.56H35.6v3.14c0,.3,0,.61-.05.91H50.88C50.85,101.31,50.83,101,50.83,100.7Z"/><path class="cls-1" d="M62.86,111.06H61.19a10.36,10.36,0,0,1-10.31-9.45H35.55a10.36,10.36,0,0,1-10.31,9.45H23.58c-4.08,0-7.39-.7-7.39,3.38v.35H70.24v-.35C70.24,110.36,66.94,111.06,62.86,111.06Z"/><polygon class="cls-3" points="48.38 41.75 7.83 41.75 7.83 89.63 10.43 89.63 27.6 89.63 78.6 89.63 78.6 44.33 78.6 41.75 48.38 41.75"/><path class="cls-4" d="M69,49.55a2.22,2.22,0,0,0-3.25,1,2.22,2.22,0,0,0-3.24-1,3.51,3.51,0,0,0-1.23,4.32c.65,1.86,4.47,4.27,4.47,4.27s3.83-2.41,4.48-4.27A3.52,3.52,0,0,0,69,49.55Z"/><path class="cls-3" d="M51.4,1c-2.87-2-6.24-.81-8.18,2.49C41.27.15,37.9-1,35,1c-3.35,2.29-4.75,6.21-3.11,10.9s11.3,10.77,11.3,10.77,9.65-6.09,11.29-10.77S54.76,3.25,51.4,1Z"/><polyline class="cls-5" points="17.65 69.23 33.4 69.23 38.21 61.19 41.36 77.79 47.29 53.59 52.29 72.95 56.55 69.23 67.85 69.23"/></g></g></svg>