<svg xmlns="http://www.w3.org/2000/svg" viewBox="0 0 66.6 83.91"><defs><style>.cls-1{fill:#c9d3dc;}.cls-2{fill:#f3f3f3;}.cls-3{fill:#007aff;}.cls-4{fill:#677177;}.cls-5{fill:#4f5c67;}</style></defs><g id="Layer_2" data-name="Layer 2"><g id="KT_배너용" data-name="KT 배너용"><path class="cls-1" d="M52.86,11.52A11.52,11.52,0,0,0,43,.13V0H25.26V10.48h4.62c0,.34-.06.69-.06,1H16.08V78.87H66.6V11.52Z"/><path class="cls-2" d="M36.78,11.52a11.52,11.52,0,0,0-23,0H0V78.87H50.52V11.52Z"/><polygon class="cls-1" points="32.23 8.77 28.01 8.77 28.01 4.55 22.51 4.55 22.51 8.77 18.29 8.77 18.29 14.27 22.51 14.27 22.51 18.49 28.01 18.49 28.01 14.27 32.23 14.27 32.23 8.77"/><rect class="cls-3" x="5.53" y="25.6" width="39.48" height="5.32"/><rect class="cls-3" x="5.53" y="34.11" width="39.48" height="5.32"/><rect class="cls-3" x="5.53" y="42.62" width="39.48" height="5.32"/><rect class="cls-3" x="5.53" y="51.13" width="39.48" height="5.32"/><rect class="cls-3" x="5.53" y="59.64" width="39.48" height="5.32"/><rect class="cls-4" y="78.87" width="50.52" height="5.03"/><rect class="cls-5" x="50.52" y="78.87" width="16.08" height="5.03"/></g></g></svg>