<svg xmlns="http://www.w3.org/2000/svg" viewBox="0 0 59.88 75.71"><defs><style>.cls-1{fill:#f3f3f3;}.cls-2{fill:#fff;}.cls-3,.cls-4{fill:none;stroke-linecap:round;stroke-linejoin:round;stroke-width:1.5px;}.cls-3{stroke:#007aff;}.cls-4{stroke:#c9d3dc;}.cls-5{fill:#fc3948;}</style></defs><g id="Layer_2" data-name="Layer 2"><g id="KT_배너용" data-name="KT 배너용"><path class="cls-1" d="M55.31,0H4.57A4.58,4.58,0,0,0,0,4.57V71.14a4.58,4.58,0,0,0,4.57,4.57H55.31a4.58,4.58,0,0,0,4.57-4.57V4.57A4.58,4.58,0,0,0,55.31,0Z"/><polygon class="cls-2" points="47.8 5.85 14.43 5.85 6.72 5.85 6.72 69.86 53.16 69.86 53.16 5.85 47.8 5.85"/><line class="cls-3" x1="23.39" y1="19.96" x2="47.45" y2="19.96"/><line class="cls-3" x1="23.39" y1="29.3" x2="47.45" y2="29.3"/><line class="cls-3" x1="23.39" y1="38.63" x2="47.45" y2="38.63"/><line class="cls-4" x1="23.39" y1="47.96" x2="47.45" y2="47.96"/><line class="cls-4" x1="23.39" y1="57.3" x2="47.45" y2="57.3"/><rect class="cls-4" x="11.69" y="17.22" width="5.49" height="5.49"/><rect class="cls-4" x="11.69" y="26.55" width="5.49" height="5.49"/><rect class="cls-4" x="11.69" y="35.89" width="5.49" height="5.49"/><rect class="cls-4" x="11.69" y="45.22" width="5.49" height="5.49"/><rect class="cls-4" x="11.69" y="54.55" width="5.49" height="5.49"/><polygon class="cls-5" points="15.21 20.15 18.08 15.76 16.96 15.02 14.42 18.9 12.54 15.93 11.4 16.64 13.61 20.14 14.4 21.38 15.21 20.15"/><polygon class="cls-5" points="15.21 29.05 18.08 24.65 16.96 23.92 14.42 27.8 12.54 24.82 11.4 25.54 13.61 29.03 14.4 30.28 15.21 29.05"/><polygon class="cls-5" points="15.21 38.71 18.08 34.32 16.96 33.58 14.42 37.46 12.54 34.49 11.4 35.2 13.61 38.7 14.4 39.94 15.21 38.71"/></g></g></svg>