<svg xmlns="http://www.w3.org/2000/svg" xmlns:xlink="http://www.w3.org/1999/xlink" viewBox="0 0 130.86 128.16"><defs><style>.cls-1{fill:#e5f1fc;}.cls-2{fill:#2d2d2d;}.cls-3{fill:url(#linear-gradient);}.cls-4{fill:#fff;}.cls-5{fill:url(#linear-gradient-2);}.cls-6{fill:url(#linear-gradient-3);}.cls-7{fill:url(#linear-gradient-4);}.cls-8{fill:none;stroke:#9fc5f8;stroke-linecap:round;stroke-linejoin:round;stroke-width:2.5px;}</style><linearGradient id="linear-gradient" x1="63.26" y1="109.36" x2="107.53" y2="109.36" gradientUnits="userSpaceOnUse"><stop offset="0.13" stop-color="#7792ff"/><stop offset="0.25" stop-color="#658eff"/><stop offset="0.48" stop-color="#3885ff"/><stop offset="0.73" stop-color="#007aff"/><stop offset="0.8" stop-color="#057bff"/><stop offset="0.9" stop-color="#137cff"/><stop offset="1" stop-color="#2b7fff"/><stop offset="1" stop-color="#2c7fff"/></linearGradient><linearGradient id="linear-gradient-2" x1="30.08" y1="54.53" x2="47.19" y2="54.53" xlink:href="#linear-gradient"/><linearGradient id="linear-gradient-3" x1="30.08" y1="66.1" x2="73.77" y2="66.1" xlink:href="#linear-gradient"/><linearGradient id="linear-gradient-4" x1="30.08" y1="77.68" x2="73.77" y2="77.68" xlink:href="#linear-gradient"/></defs><g id="Layer_2" data-name="Layer 2"><g id="Isolation_Mode" data-name="Isolation Mode"><circle class="cls-1" cx="55.53" cy="72.63" r="55.53"/><path class="cls-2" d="M107.53,90.55a7.29,7.29,0,0,1,7.4,7.17H91.64l3.26-6.45Z"/><path class="cls-3" d="M100.12,90.55H70.66a7.29,7.29,0,0,0-7.4,7.17V121l21.85,6.26,7.61.9a7.28,7.28,0,0,0,7.4-7.16V97.72a7.29,7.29,0,0,1,7.41-7.17Z"/><path class="cls-4" d="M85.31,121V43.72a3.66,3.66,0,0,0-3.72-3.61H23.18a3.67,3.67,0,0,0-3.73,3.61V121a7.29,7.29,0,0,0,7.4,7.16H92.72A7.29,7.29,0,0,1,85.31,121Z"/><path class="cls-5" d="M32.42,56.79H44.85a2.26,2.26,0,1,0,0-4.52H32.42a2.26,2.26,0,1,0,0,4.52Z"/><path class="cls-6" d="M32.42,68.36h39a2.26,2.26,0,1,0,0-4.52h-39a2.26,2.26,0,1,0,0,4.52Z"/><path class="cls-7" d="M71.43,75.42h-39a2.26,2.26,0,1,0,0,4.52h39a2.26,2.26,0,1,0,0-4.52Z"/><line class="cls-8" x1="106.38" y1="12.87" x2="129.61" y2="12.87"/><line class="cls-8" x1="117.99" y1="24.48" x2="117.99" y2="1.25"/><line class="cls-8" x1="75.55" y1="28.15" x2="91.64" y2="28.15"/><line class="cls-8" x1="83.6" y1="36.19" x2="83.6" y2="20.11"/></g></g></svg>