<svg xmlns="http://www.w3.org/2000/svg" xmlns:xlink="http://www.w3.org/1999/xlink" viewBox="0 0 152.31 111.06"><defs><style>.cls-1{fill:url(#linear-gradient);}.cls-2{isolation:isolate;}.cls-3{fill:#e5f1fc;}.cls-4{fill:none;stroke:#9fc5f8;stroke-linecap:round;stroke-linejoin:round;stroke-width:2.5px;}.cls-5{fill:#fff;}.cls-6{clip-path:url(#clip-path);}.cls-7{fill:url(#linear-gradient-3);}.cls-8,.cls-9{fill:url(#linear-gradient-4);}.cls-9{mix-blend-mode:multiply;}.cls-10{fill:url(#linear-gradient-14);}.cls-11{fill:url(#linear-gradient-15);}.cls-12{fill:url(#linear-gradient-16);}.cls-13{fill:url(#linear-gradient-17);}.cls-14{fill:url(#linear-gradient-18);}</style><linearGradient id="linear-gradient" x1="52.97" y1="25.92" x2="142.76" y2="25.92" gradientUnits="userSpaceOnUse"><stop offset="0.13" stop-color="#7792ff"/><stop offset="0.25" stop-color="#658eff"/><stop offset="0.48" stop-color="#3885ff"/><stop offset="0.73" stop-color="#007aff"/><stop offset="0.8" stop-color="#057bff"/><stop offset="0.9" stop-color="#137cff"/><stop offset="1" stop-color="#2b7fff"/><stop offset="1" stop-color="#2c7fff"/></linearGradient><clipPath id="clip-path"><path class="cls-1" d="M53,32.91v-9c0-2.73,2.59-4.95,5.79-4.95H137c3.2,0,5.79,2.22,5.79,4.95v9Z"/></clipPath><linearGradient id="linear-gradient-3" x1="52.97" y1="21.4" x2="136.97" y2="21.4" xlink:href="#linear-gradient"/><linearGradient id="linear-gradient-4" x1="151.03" y1="19.18" x2="151.53" y2="19.18" gradientUnits="userSpaceOnUse"><stop offset="0.4" stop-color="#007aff"/><stop offset="0.5" stop-color="#057eff"/><stop offset="0.63" stop-color="#138bff"/><stop offset="0.76" stop-color="#2ba0ff"/><stop offset="0.9" stop-color="#4dbdff"/><stop offset="1" stop-color="#6ad7ff"/><stop offset="1" stop-color="#5ec5ff"/><stop offset="1" stop-color="#3e98ff"/><stop offset="1" stop-color="#2c7fff"/></linearGradient><linearGradient id="linear-gradient-14" x1="69.04" y1="66.45" x2="68.79" y2="59.3" xlink:href="#linear-gradient"/><linearGradient id="linear-gradient-15" x1="83.24" y1="65.94" x2="82.99" y2="58.79" xlink:href="#linear-gradient"/><linearGradient id="linear-gradient-16" x1="96.44" y1="65.47" x2="96.19" y2="58.32" xlink:href="#linear-gradient"/><linearGradient id="linear-gradient-17" x1="108.56" y1="65.04" x2="108.3" y2="57.89" xlink:href="#linear-gradient"/><linearGradient id="linear-gradient-18" x1="124.56" y1="64.47" x2="124.3" y2="57.32" xlink:href="#linear-gradient"/></defs><g class="cls-2"><g id="Layer_2" data-name="Layer 2"><g id="Isolation_Mode" data-name="Isolation Mode"><circle class="cls-3" cx="96.78" cy="55.53" r="55.53"/><polyline class="cls-4" points="1.25 51.9 23.1 51.9 27.2 35.51 33.25 66.93 39.1 44.49 43.01 60.1 47.1 51.9 71.1 51.9"/><rect class="cls-5" x="52.97" y="18.92" width="89.79" height="77.72" rx="7.38"/><path class="cls-1" d="M53,32.91v-9c0-2.73,2.59-4.95,5.79-4.95H137c3.2,0,5.79,2.22,5.79,4.95v9Z"/><g class="cls-6"><path class="cls-7" d="M53,23.87c0-2.73,2.59-4.95,5.79-4.95H137"/></g><rect class="cls-8" x="65.33" y="14.97" width="3.38" height="8.44" rx="1.69"/><rect class="cls-8" x="81.05" y="14.97" width="3.38" height="8.44" rx="1.69"/><rect class="cls-8" x="96.78" y="14.97" width="3.38" height="8.44" rx="1.69"/><rect class="cls-8" x="112.5" y="14.97" width="3.38" height="8.44" rx="1.69"/><rect class="cls-8" x="128.22" y="14.97" width="3.38" height="8.44" rx="1.69"/><rect class="cls-9" x="65.33" y="14.97" width="3.38" height="8.44" rx="1.69"/><rect class="cls-9" x="81.05" y="14.97" width="3.38" height="8.44" rx="1.69"/><rect class="cls-9" x="96.78" y="14.97" width="3.38" height="8.44" rx="1.69"/><rect class="cls-9" x="112.5" y="14.97" width="3.38" height="8.44" rx="1.69"/><rect class="cls-9" x="128.22" y="14.97" width="3.38" height="8.44" rx="1.69"/><path class="cls-10" d="M75.64,72.06H62.74V69.54l6-6.73a15,15,0,0,0,1.89-2.66,4.38,4.38,0,0,0,.56-2,2.93,2.93,0,0,0-.59-1.91,2.21,2.21,0,0,0-1.78-.71,2.29,2.29,0,0,0-1.94.91,3.73,3.73,0,0,0-.69,2.31H62.4l0-.08a5.72,5.72,0,0,1,1.69-4.33,6.31,6.31,0,0,1,4.72-1.78,6.5,6.5,0,0,1,4.59,1.51A5.27,5.27,0,0,1,75,58.13a5.72,5.72,0,0,1-.92,3.16,34.75,34.75,0,0,1-3.16,3.95L67.76,69l0,.07h7.85Z"/><path class="cls-11" d="M89.62,65.11a7.49,7.49,0,0,1-1.78,5.3,6.06,6.06,0,0,1-4.7,1.93,6.14,6.14,0,0,1-4.74-1.93,7.49,7.49,0,0,1-1.79-5.3v-5.3a7.61,7.61,0,0,1,1.78-5.31,6.71,6.71,0,0,1,9.44,0,7.57,7.57,0,0,1,1.79,5.31Zm-3.84-5.7a5,5,0,0,0-.71-2.86,2.39,2.39,0,0,0-3.92,0,5.06,5.06,0,0,0-.69,2.86v6.06a5,5,0,0,0,.7,2.9,2.24,2.24,0,0,0,2,1,2.21,2.21,0,0,0,1.94-1,5,5,0,0,0,.7-2.9Z"/><path class="cls-12" d="M93.8,66.6a5.31,5.31,0,0,1,.55-2.71,9.31,9.31,0,0,1,2.13-2.09A6.77,6.77,0,0,0,98,60.15a3.65,3.65,0,0,0,.56-2,2.67,2.67,0,0,0-.64-1.9,2.38,2.38,0,0,0-1.83-.69,2.44,2.44,0,0,0-1.65.59,2.12,2.12,0,0,0-.7,1.7H90l0-.08a4.54,4.54,0,0,1,1.67-3.88,7,7,0,0,1,4.45-1.35,6.73,6.73,0,0,1,4.64,1.5,5.16,5.16,0,0,1,1.69,4.07,5.35,5.35,0,0,1-1,3.11A8.76,8.76,0,0,1,99,63.63a3.05,3.05,0,0,0-1,1.24,4.74,4.74,0,0,0-.26,1.73Zm3.87,5.46H93.79v-3.3h3.88Z"/><path class="cls-13" d="M105.93,66.6a5.31,5.31,0,0,1,.55-2.71,9.31,9.31,0,0,1,2.13-2.09,6.77,6.77,0,0,0,1.5-1.65,3.65,3.65,0,0,0,.56-2,2.67,2.67,0,0,0-.64-1.9,2.38,2.38,0,0,0-1.83-.69,2.44,2.44,0,0,0-1.65.59,2.12,2.12,0,0,0-.7,1.7H102.1l0-.08a4.54,4.54,0,0,1,1.67-3.88,7,7,0,0,1,4.45-1.35,6.73,6.73,0,0,1,4.64,1.5,5.16,5.16,0,0,1,1.69,4.07,5.35,5.35,0,0,1-1,3.11,8.76,8.76,0,0,1-2.46,2.39,3.05,3.05,0,0,0-1,1.24,4.74,4.74,0,0,0-.26,1.73Zm3.87,5.46h-3.88v-3.3h3.88Z"/><path class="cls-14" d="M127.07,64.62a49.75,49.75,0,0,1-9.25.73h-1.64V54.12h2.42v9.23a48.43,48.43,0,0,0,8.24-.7Zm6,6.88v2H118.78V66.94h2.42V71.5Zm-3-10.31h-5.64V59.27h5.64V57.18h-5.64V55.25h5.64V52.67h2.41V68.33h-2.41Z"/></g></g></g></svg>