<svg xmlns="http://www.w3.org/2000/svg" xmlns:xlink="http://www.w3.org/1999/xlink" viewBox="0 0 65.24 64.19"><defs><style>.cls-1{fill:none;}.cls-2{isolation:isolate;}.cls-3{fill:url(#linear-gradient);}.cls-4{clip-path:url(#clip-path);}.cls-5{fill:url(#linear-gradient-2);}.cls-6{fill:#e5f1fc;}.cls-7{mix-blend-mode:multiply;}.cls-20,.cls-8{fill:#fff;}.cls-8{opacity:0.2;}.cls-9{fill:#f4f9fd;opacity:0.27;}.cls-10{fill:#e8f3fc;opacity:0.35;}.cls-11{fill:#ddecfa;opacity:0.42;}.cls-12{fill:#d2e6f8;opacity:0.49;}.cls-13{fill:#c7e0f7;opacity:0.56;}.cls-14{fill:#bbdaf5;opacity:0.64;}.cls-15{fill:#b0d4f4;opacity:0.71;}.cls-16{fill:#a5cef2;opacity:0.78;}.cls-17{fill:#9ac7f0;opacity:0.85;}.cls-18{fill:#8ec1ef;opacity:0.93;}.cls-19{fill:#83bbed;}</style><linearGradient id="linear-gradient" x1="32.62" y1="19.47" x2="32.62" y2="27.92" gradientUnits="userSpaceOnUse"><stop offset="0" stop-color="#fff"/><stop offset="1" stop-color="#e5f1fc"/></linearGradient><clipPath id="clip-path"><rect class="cls-1" x="7.25" width="50.75" height="49.72" rx="1"/></clipPath><linearGradient id="linear-gradient-2" x1="32.62" y1="1.58" x2="32.62" y2="64.59" gradientUnits="userSpaceOnUse"><stop offset="0.13" stop-color="#7792ff"/><stop offset="0.25" stop-color="#658eff"/><stop offset="0.48" stop-color="#3885ff"/><stop offset="0.73" stop-color="#007aff"/><stop offset="0.8" stop-color="#057bff"/><stop offset="0.9" stop-color="#137cff"/><stop offset="1" stop-color="#2b7fff"/><stop offset="1" stop-color="#2c7fff"/></linearGradient></defs><g class="cls-2"><g id="Layer_2" data-name="Layer 2"><g id="Isolation_Mode" data-name="Isolation Mode"><rect class="cls-3" y="18.94" width="65.24" height="45.25" rx="4.25"/><g class="cls-4"><rect class="cls-5" x="7.25" width="50.75" height="49.72" rx="4.25"/><path class="cls-6" d="M18.61,12.49H30.25a1.8,1.8,0,0,0,0-3.59H18.61a1.8,1.8,0,0,0,0,3.59Z"/><path class="cls-6" d="M18.61,20.36H47.25a1.79,1.79,0,1,0,0-3.58H18.61a1.79,1.79,0,0,0,0,3.58Z"/><path class="cls-6" d="M47.25,24.65H18.61a1.8,1.8,0,0,0,0,3.59H47.25a1.8,1.8,0,1,0,0-3.59Z"/><g class="cls-7"><path class="cls-8" d="M5.46,19.14l24,13.45a7.06,7.06,0,0,0,6.91,0L60.51,18.94V32.16l-27,16.38L5.06,32Z"/><path class="cls-9" d="M5.46,19.77l24,13.45a7.06,7.06,0,0,0,6.91,0L60.51,19.57V32l-27,16.38L5.06,31.79Z"/><path class="cls-10" d="M5.46,20.39l24,13.45a7,7,0,0,0,6.91,0L60.51,20.2V31.8l-27,16.38L5.06,31.61Z"/><path class="cls-11" d="M5.46,21l24,13.45a7,7,0,0,0,6.91,0L60.51,20.83V31.62L33.48,48,5.06,31.43Z"/><path class="cls-12" d="M5.46,21.65l24,13.45a7.06,7.06,0,0,0,6.91,0L60.51,21.45v10l-27,16.38L5.06,31.25Z"/><path class="cls-13" d="M5.46,22.28l24,13.45a7.06,7.06,0,0,0,6.91,0L60.51,22.08v9.19l-27,16.37L5.06,31.07Z"/><path class="cls-14" d="M5.46,22.91l24,13.45a7.06,7.06,0,0,0,6.91,0L60.51,22.71v8.38l-27,16.37L5.06,30.89Z"/><path class="cls-15" d="M5.46,23.53,29.43,37a7,7,0,0,0,6.91,0L60.51,23.34v7.57l-27,16.37L5.06,30.71Z"/><path class="cls-16" d="M5.46,24.16l24,13.45a7,7,0,0,0,6.91,0L60.51,24v6.77l-27,16.37L5.06,30.53Z"/><path class="cls-17" d="M5.46,24.79l24,13.45a7.06,7.06,0,0,0,6.91,0L60.51,24.59v6l-27,16.37L5.06,30.35Z"/><path class="cls-18" d="M5.46,25.42l24,13.45a7.06,7.06,0,0,0,6.91,0L60.51,25.22v5.15l-27,16.38L5.06,30.17Z"/><path class="cls-19" d="M5.46,26.05l24,13.44a7,7,0,0,0,6.91,0L60.51,25.85v4.34l-27,16.38L5.06,30Z"/></g></g><path class="cls-20" d="M32.62,41.83,65.24,23.68V59.46a4.73,4.73,0,0,1-4.73,4.73H4.74A4.74,4.74,0,0,1,0,59.46V23.68Z"/></g></g></g></svg>