<svg xmlns="http://www.w3.org/2000/svg" viewBox="0 0 25.95 30.67"><defs><style>.cls-1{fill:none;}.cls-2{fill:#007aff;}</style></defs><g id="Layer_2" data-name="Layer 2"><g id="Isolation_Mode" data-name="Isolation Mode"><path class="cls-1" d="M15.55,12.73a3.64,3.64,0,0,0-5.15,5.15,3.74,3.74,0,0,0,5.15,0,3.66,3.66,0,0,0,0-5.15Z"/><path class="cls-1" d="M21.57,15.3a30.33,30.33,0,0,0-3.86-4.73A30,30,0,0,0,13,6.71a29.91,29.91,0,0,0-4.73,3.86,30.53,30.53,0,0,0-3.86,4.74A30.47,30.47,0,0,0,8.24,20,30.47,30.47,0,0,0,13,23.9,30.53,30.53,0,0,0,17.71,20,30,30,0,0,0,21.57,15.3ZM13,20.44a5.12,5.12,0,1,1,3.64-1.5A5.13,5.13,0,0,1,13,20.44Z"/><path class="cls-1" d="M14.39,24.76A18.57,18.57,0,0,0,18,26.33a3.1,3.1,0,0,1,5.45-.47s.05,0,.07-.06c1.17-1.17,1.29-3.42.32-6.17a19.39,19.39,0,0,0-1.36-2.91,32.69,32.69,0,0,1-3.66,4.38A32.69,32.69,0,0,1,14.39,24.76Z"/><path class="cls-1" d="M20.8,26a1.62,1.62,0,0,0-1.34.72,5.92,5.92,0,0,0,2.61-.08A1.58,1.58,0,0,0,20.8,26Z"/><path class="cls-1" d="M3.52,16.73c-2.16,3.85-2.72,7.4-1,9.07s5.22,1.12,9.06-1A32.79,32.79,0,0,1,7.18,21.1,32,32,0,0,1,3.52,16.73Z"/><path class="cls-1" d="M19.31,28.17a1.63,1.63,0,0,0,1.49,1,1.61,1.61,0,0,0,1.52-1.11,6.73,6.73,0,0,1-1.66.22A9.2,9.2,0,0,1,19.31,28.17Z"/><path class="cls-1" d="M22.43,13.89c2.16-3.85,2.72-7.41,1-9.08a3.81,3.81,0,0,0-2.8-1,13.62,13.62,0,0,0-6.28,2,32.69,32.69,0,0,1,4.38,3.66A32.69,32.69,0,0,1,22.43,13.89Z"/><path class="cls-1" d="M11.56,5.85A19.42,19.42,0,0,0,8.63,4.49,3.08,3.08,0,0,1,3,4.37a2.42,2.42,0,0,0-.56.44C.8,6.48,1.36,10,3.52,13.89A32.69,32.69,0,0,1,7.18,9.51,31.48,31.48,0,0,1,11.56,5.85Z"/><path class="cls-1" d="M7.38,2.59A1.61,1.61,0,0,0,5.87,1.5a1.59,1.59,0,0,0-1.43.89A9.18,9.18,0,0,1,7.38,2.59Z"/><path class="cls-1" d="M5.87,4.72a1.6,1.6,0,0,0,1.29-.66,8.68,8.68,0,0,0-1.88-.23,6.91,6.91,0,0,0-.81,0A1.58,1.58,0,0,0,5.87,4.72Z"/><path class="cls-2" d="M4.38,15.31c-.31.47-.6,1-.86,1.42A32,32,0,0,0,7.18,21.1a32.79,32.79,0,0,0,4.36,3.67c.48-.27,1-.56,1.43-.87A30.47,30.47,0,0,1,8.24,20,30.47,30.47,0,0,1,4.38,15.31Z"/><path class="cls-2" d="M18,26.33a18.57,18.57,0,0,1-3.56-1.57c-.47.33-1,.64-1.42.93a20,20,0,0,0,4.75,2.14,2.48,2.48,0,0,1,0-.27A3,3,0,0,1,18,26.33Z"/><path class="cls-2" d="M8.63,4.49a19.42,19.42,0,0,1,2.93,1.36c.47-.33.94-.64,1.41-.92A20.54,20.54,0,0,0,9.15,3.08L9,3s0,.05,0,.08A2.91,2.91,0,0,1,8.63,4.49Z"/><path class="cls-2" d="M2.48,4.81A2.42,2.42,0,0,1,3,4.37a3,3,0,0,1-.28-1.26c0-.1,0-.2,0-.3a4.35,4.35,0,0,0-1.37.94C-.89,6.05-.27,10.57,2.6,15.31c.28-.48.59-1,.92-1.42C1.36,10,.8,6.48,2.48,4.81Z"/><path class="cls-2" d="M23.35,15.31c-.28.47-.59.94-.92,1.41a19.39,19.39,0,0,1,1.36,2.91c1,2.75.85,5-.32,6.17,0,0,0,0-.07.06a3,3,0,0,1,.49,1.52,4.55,4.55,0,0,0,.64-.52c1.62-1.62,1.86-4.36.67-7.73A20.54,20.54,0,0,0,23.35,15.31Z"/><path class="cls-2" d="M21.57,15.3c.31-.48.6-1,.86-1.41a32.69,32.69,0,0,0-3.66-4.38,32.69,32.69,0,0,0-4.38-3.66c-.47.26-.94.55-1.42.86a30,30,0,0,1,4.74,3.86A30.33,30.33,0,0,1,21.57,15.3Z"/><path class="cls-2" d="M2.48,25.8c-1.68-1.67-1.12-5.22,1-9.07-.33-.48-.64-1-.92-1.42A20.54,20.54,0,0,0,.75,19.13c-1.19,3.37-1,6.11.67,7.73a5.21,5.21,0,0,0,3.85,1.42,11.82,11.82,0,0,0,3.88-.75A21.44,21.44,0,0,0,13,25.69c-.48-.29-1-.59-1.43-.92C7.7,26.92,4.15,27.48,2.48,25.8Z"/><path class="cls-2" d="M13,6.71c-.47-.31-.94-.6-1.41-.86A31.48,31.48,0,0,0,7.18,9.51a32.69,32.69,0,0,0-3.66,4.38c.26.47.55.94.86,1.42a30.53,30.53,0,0,1,3.86-4.74A29.91,29.91,0,0,1,13,6.71Z"/><path class="cls-2" d="M20.67,3.83a3.81,3.81,0,0,1,2.8,1c1.68,1.67,1.12,5.23-1,9.08.32.47.63.94.92,1.42a20.92,20.92,0,0,0,1.85-3.83c1.19-3.37.95-6.11-.67-7.73C22.23,1.44,17.71,2.06,13,4.93c.48.28.95.59,1.42.92A13.62,13.62,0,0,1,20.67,3.83Z"/><path class="cls-2" d="M17.71,20A30.53,30.53,0,0,1,13,23.9c.48.31.95.6,1.42.86a32.69,32.69,0,0,0,4.38-3.66,32.69,32.69,0,0,0,3.66-4.38c-.26-.48-.55-.95-.86-1.42A30,30,0,0,1,17.71,20Z"/><path class="cls-2" d="M13,23.9c-.48.31-1,.6-1.43.87.48.33,1,.63,1.43.92.47-.29.95-.6,1.42-.93C13.92,24.5,13.45,24.21,13,23.9Z"/><path class="cls-2" d="M21.57,15.3c.31.47.6.94.86,1.42.33-.47.64-.94.92-1.41-.29-.48-.6-1-.92-1.42C22.17,14.35,21.88,14.82,21.57,15.3Z"/><path class="cls-2" d="M13,6.71c.48-.31.95-.6,1.42-.86-.47-.33-.94-.64-1.42-.92-.47.28-.94.59-1.41.92C12,6.11,12.5,6.4,13,6.71Z"/><path class="cls-2" d="M4.38,15.31c-.31-.48-.6-1-.86-1.42-.33.47-.64.94-.92,1.42.28.47.59.94.92,1.42C3.78,16.26,4.07,15.78,4.38,15.31Z"/><path class="cls-2" d="M16.61,11.67a5.14,5.14,0,1,0,0,7.27,5.15,5.15,0,0,0,0-7.27Zm-1.06,6.21a3.74,3.74,0,0,1-5.15,0,3.64,3.64,0,0,1,5.15-5.15,3.66,3.66,0,0,1,0,5.15Z"/><path class="cls-2" d="M5.87,6.22A3.09,3.09,0,0,0,8.63,4.49a13.31,13.31,0,0,0-1.47-.43,1.6,1.6,0,0,1-1.29.66,1.58,1.58,0,0,1-1.4-.84A3.79,3.79,0,0,0,3,4.37,3.1,3.1,0,0,0,5.87,6.22Z"/><path class="cls-2" d="M5.87,1.5A1.61,1.61,0,0,1,7.38,2.59,13.66,13.66,0,0,1,9,3a3.1,3.1,0,0,0-6.18-.22,5.71,5.71,0,0,1,1.65-.42A1.59,1.59,0,0,1,5.87,1.5Z"/><path class="cls-2" d="M7.48,3.11a1.64,1.64,0,0,1-.32.95,13.31,13.31,0,0,1,1.47.43A2.91,2.91,0,0,0,9,3.11S9,3.05,9,3a13.66,13.66,0,0,0-1.59-.44A1.46,1.46,0,0,1,7.48,3.11Z"/><path class="cls-2" d="M3,4.37a3.79,3.79,0,0,1,1.43-.49,1.56,1.56,0,0,1-.21-.77,1.6,1.6,0,0,1,.18-.72,5.71,5.71,0,0,0-1.65.42c0,.1,0,.2,0,.3A3,3,0,0,0,3,4.37Z"/><path class="cls-2" d="M20.8,24.45A3.1,3.1,0,0,0,18,26.33a10.11,10.11,0,0,0,1.51.34A1.62,1.62,0,0,1,20.8,26a1.58,1.58,0,0,1,1.27.64,3.26,3.26,0,0,0,1.33-.73A3.1,3.1,0,0,0,20.8,24.45Z"/><path class="cls-2" d="M20.8,29.17a1.63,1.63,0,0,1-1.49-1,12.62,12.62,0,0,1-1.59-.34,3.1,3.1,0,0,0,6.19-.27c0-.06,0-.12,0-.18a5.16,5.16,0,0,1-1.57.68A1.61,1.61,0,0,1,20.8,29.17Z"/><path class="cls-2" d="M19.19,27.56a1.61,1.61,0,0,1,.27-.89A10.11,10.11,0,0,1,18,26.33a3,3,0,0,0-.26,1.23,2.48,2.48,0,0,0,0,.27,12.62,12.62,0,0,0,1.59.34A1.79,1.79,0,0,1,19.19,27.56Z"/><path class="cls-2" d="M22.07,26.59a1.57,1.57,0,0,1,.34,1,1.7,1.7,0,0,1-.09.5,5.16,5.16,0,0,0,1.57-.68,3,3,0,0,0-.49-1.52A3.26,3.26,0,0,1,22.07,26.59Z"/></g></g></svg>