<svg xmlns="http://www.w3.org/2000/svg" viewBox="0 0 32.17 35.01"><defs><style>.cls-1,.cls-2{fill:#007aff;}.cls-2{stroke:#007aff;stroke-miterlimit:10;stroke-width:0.5px;}</style></defs><g id="Layer_2" data-name="Layer 2"><g id="Isolation_Mode" data-name="Isolation Mode"><path class="cls-1" d="M1,35a1,1,0,0,1-.71-.3A1,1,0,0,1,0,34V1A1,1,0,0,1,1,0H23.28A1,1,0,0,1,24,.32l7.89,8.5a1,1,0,0,1,.27.68V34a1,1,0,0,1-.29.71,1,1,0,0,1-.71.29ZM2,2V33H30.17V9.89L22.84,2Z"/><path class="cls-1" d="M22.81,11.08a1,1,0,0,1-.7-.29,1,1,0,0,1-.3-.71V1.5a1,1,0,0,1,2,0V9.08H30.7a1,1,0,0,1,0,2Z"/><rect class="cls-2" x="7.84" y="21.08" width="17.17" height="1.5"/><rect class="cls-2" x="7.84" y="25.83" width="17.17" height="1.5"/></g></g></svg>