<svg xmlns="http://www.w3.org/2000/svg" viewBox="0 0 27.15 27.15"><defs><style>.cls-1{fill:none;stroke:#1d1d1b;stroke-linecap:round;stroke-linejoin:round;stroke-width:2px;}</style></defs><g id="Layer_2" data-name="Layer 2"><g id="Layer_2-2" data-name="Layer 2"><path class="cls-1" d="M26.15,15.44V11.71l-3.35-1a9.68,9.68,0,0,0-.66-1.59L23.79,6,21.15,3.36,18.05,5a9.68,9.68,0,0,0-1.59-.66L15.44,1H11.71l-1,3.35A9.68,9.68,0,0,0,9.1,5L6,3.36,3.36,6,5,9.1a9.68,9.68,0,0,0-.66,1.59L1,11.71v3.73l3.35,1A9.68,9.68,0,0,0,5,18.05l-1.65,3.1L6,23.79l3.1-1.65a9.68,9.68,0,0,0,1.59.66l1,3.35h3.73l1-3.35a9.68,9.68,0,0,0,1.59-.66l3.1,1.65,2.64-2.64-1.65-3.1a9.68,9.68,0,0,0,.66-1.59Z"/><circle class="cls-1" cx="13.58" cy="13.58" r="3.28"/></g></g></svg>