<svg xmlns="http://www.w3.org/2000/svg" viewBox="0 0 78.09 73.8"><defs><style>.cls-1{fill:#007aff;}</style></defs><g id="Layer_2" data-name="Layer 2"><g id="icon"><path class="cls-1" d="M56.22,71.85H2V2H56.22V30.56l2-1.95V2a2,2,0,0,0-2-1.95H2A2,2,0,0,0,0,2v69.9a2,2,0,0,0,2,2H56.22a2,2,0,0,0,2-2V45.22l-2,2Z"/><polygon class="cls-1" points="54.27 69.9 3.9 69.9 3.9 3.9 54.27 3.9 54.27 32.51 56.22 30.56 56.22 1.95 1.95 1.95 1.95 71.85 56.22 71.85 56.22 47.17 54.27 49.12 54.27 69.9"/><path class="cls-1" d="M13.09,16h32a1.95,1.95,0,1,0,0-3.9h-32a1.95,1.95,0,0,0,0,3.9Z"/><path class="cls-1" d="M13.09,25.67h32a1.95,1.95,0,1,0,0-3.9h-32a1.95,1.95,0,1,0,0,3.9Z"/><path class="cls-1" d="M47,33.36a2,2,0,0,0-2-1.95h-32a1.95,1.95,0,1,0,0,3.9h32A2,2,0,0,0,47,33.36Z"/><path class="cls-1" d="M45.08,57.53H30.9a1.95,1.95,0,1,0,0,3.9H45.08a1.95,1.95,0,1,0,0-3.9Z"/><path class="cls-1" d="M78.09,24.49a2,2,0,0,0-.57-1.37L72,17.57a2,2,0,0,0-2.76,0l-11,11v5.52L70.59,21.71l2.79,2.78L58.17,39.71v5.51L77.52,25.87A2,2,0,0,0,78.09,24.49Z"/><path class="cls-1" d="M43.13,43.65a2,2,0,0,0-.54,1.07l-1.06,6.6A2,2,0,0,0,42.08,53a1.94,1.94,0,0,0,1.38.57l.3,0,6.61-1.06A2,2,0,0,0,51.44,52l2.83-2.83V43.61l-5.14,5.14-3.32.53L46.34,46,54.27,38V32.51Zm7,6.92h0Z"/><polygon class="cls-1" points="56.22 41.66 56.22 47.17 58.17 45.22 58.17 39.71 56.22 41.66"/><polygon class="cls-1" points="56.22 36.08 58.17 34.13 58.17 28.61 56.22 30.56 56.22 36.08"/><polygon class="cls-1" points="54.27 49.12 56.22 47.17 56.22 41.66 54.27 43.61 54.27 49.12"/><polygon class="cls-1" points="54.27 38.03 56.22 36.08 56.22 30.56 54.27 32.51 54.27 38.03"/></g></g></svg>