<svg xmlns="http://www.w3.org/2000/svg" viewBox="0 0 116.04 111.42"><defs><style>.cls-1{fill:#dedede;}</style></defs><g id="레이어_2" data-name="레이어 2"><g id="레이어_1-2" data-name="레이어 1"><path class="cls-1" d="M61.61,32.93a3.25,3.25,0,0,0,0-6.5H43.83l-5.18,6.5Z"/><path class="cls-1" d="M19.73,29.68A3.25,3.25,0,0,0,23,32.93H38.65l5.18-6.5H23A3.26,3.26,0,0,0,19.73,29.68Z"/><path class="cls-1" d="M23,50.12H36l5.18-6.5H23a3.25,3.25,0,1,0,0,6.5Z"/><path class="cls-1" d="M53.74,50.12a3.25,3.25,0,0,0,0-6.5H41.19L36,50.12Z"/><path class="cls-1" d="M53.05,67.3a3.25,3.25,0,0,0,0-6.5H41l-5.18,6.5Z"/><path class="cls-1" d="M23,67.3H35.86L41,60.8H23a3.25,3.25,0,0,0,0,6.5Z"/><path class="cls-1" d="M23,78a3.25,3.25,0,0,0,0,6.5H39.56L44.74,78Z"/><path class="cls-1" d="M64.86,81.23A3.25,3.25,0,0,0,61.61,78H44.74l-5.18,6.5h22A3.24,3.24,0,0,0,64.86,81.23Z"/><rect class="cls-1" y="6.5" width="6.5" height="32.24"/><path class="cls-1" d="M3.25,0A3.25,3.25,0,0,0,0,3.25V6.5H31.49V0Z"/><rect class="cls-1" y="38.74" width="6.5" height="32.24"/><rect class="cls-1" x="31.49" width="34.5" height="6.5"/><path class="cls-1" d="M94.34,111.42a3.26,3.26,0,0,0,3.25-3.25v-3.65h-6.5v.4H66v6.5Z"/><path class="cls-1" d="M97.59,88.59a3.25,3.25,0,0,0-6.5,0v15.93h6.5Z"/><rect class="cls-1" x="31.49" y="104.92" width="34.5" height="6.5"/><path class="cls-1" d="M0,108.17a3.26,3.26,0,0,0,3.25,3.25H31.49v-6.5H6.5v-.4H0Z"/><rect class="cls-1" y="70.97" width="6.5" height="33.55"/><path class="cls-1" d="M107.05,71.92l-5.14,4,8.32,10.68a3.25,3.25,0,1,0,5.13-4Z"/><path class="cls-1" d="M81.86,41.43l-3.48-5.51a23.19,23.19,0,0,0-11.09,18.5h6.52A16.67,16.67,0,0,1,81.86,41.43Z"/><path class="cls-1" d="M73.75,55.71c0-.44,0-.86.06-1.29H67.29c0,.43,0,.86,0,1.29a23.15,23.15,0,0,0,10.68,19.5l3.28-5.61A16.68,16.68,0,0,1,73.75,55.71Z"/><path class="cls-1" d="M90.42,72.38a16.63,16.63,0,0,1-9.21-2.78l-3.28,5.61a23.09,23.09,0,0,0,23.8.71l-3.1-5.72A16.58,16.58,0,0,1,90.42,72.38Z"/><path class="cls-1" d="M107,71.87a23.1,23.1,0,0,0,6.58-16.16c0-.43,0-.86,0-1.29H107c0,.43.06.85.06,1.29A16.67,16.67,0,0,1,98.63,70.2l3.1,5.72.14-.08,0,.06,5.14-4Z"/><path class="cls-1" d="M107,54.42h6.51a23.18,23.18,0,0,0-11.39-18.67l-3.53,5.46A16.68,16.68,0,0,1,107,54.42Z"/><polygon class="cls-1" points="97.59 6.5 91.09 6.5 91.09 32.46 97.59 33.63 97.59 6.5"/><path class="cls-1" d="M90.42,39a16.51,16.51,0,0,1,8.2,2.17l3.53-5.46a23.18,23.18,0,0,0-4.56-2.07v0l-6.5-1.17v.09h-.67a23,23,0,0,0-12,3.38l3.48,5.51A16.54,16.54,0,0,1,90.42,39Z"/><path class="cls-1" d="M97.59,3.25A3.25,3.25,0,0,0,94.34,0H66V6.5h31.6Z"/></g></g></svg>