<svg xmlns="http://www.w3.org/2000/svg" viewBox="0 0 72.88 73.6"><defs><style>.cls-1{fill:#007aff;}</style></defs><g id="Layer_2" data-name="Layer 2"><g id="icon"><path class="cls-1" d="M60.49,73.6H12.38a1.82,1.82,0,0,1-1.81-1.81v-70A1.81,1.81,0,0,1,12.38,0H60.49A1.81,1.81,0,0,1,62.3,1.81v70A1.82,1.82,0,0,1,60.49,73.6ZM14.19,70H58.68V3.62H14.19Z"/><path class="cls-1" d="M71.07,73.6H1.81a1.82,1.82,0,0,1,0-3.63H71.07a1.82,1.82,0,0,1,0,3.63Z"/><path class="cls-1" d="M41.54,73.6H31.33a1.82,1.82,0,0,1-1.81-1.81V59.4a1.82,1.82,0,0,1,1.81-1.81H41.54a1.81,1.81,0,0,1,1.81,1.81V71.79A1.82,1.82,0,0,1,41.54,73.6ZM33.15,70h6.58V61.21H33.15Z"/><path class="cls-1" d="M27.21,15.31h-6a1.82,1.82,0,0,1,0-3.63h6a1.82,1.82,0,1,1,0,3.63Z"/><path class="cls-1" d="M39.51,15.31H33.36a1.82,1.82,0,0,1,0-3.63h6.15a1.82,1.82,0,0,1,0,3.63Z"/><path class="cls-1" d="M51.7,15.31h-6a1.82,1.82,0,0,1,0-3.63h6a1.82,1.82,0,0,1,0,3.63Z"/><path class="cls-1" d="M27.21,25.48h-6a1.81,1.81,0,1,1,0-3.62h6a1.81,1.81,0,1,1,0,3.62Z"/><path class="cls-1" d="M39.51,25.48H33.36a1.81,1.81,0,0,1,0-3.62h6.15a1.81,1.81,0,0,1,0,3.62Z"/><path class="cls-1" d="M51.7,25.48h-6a1.81,1.81,0,1,1,0-3.62h6a1.81,1.81,0,0,1,0,3.62Z"/><path class="cls-1" d="M27.21,35.65h-6a1.81,1.81,0,0,1,0-3.62h6a1.81,1.81,0,1,1,0,3.62Z"/><path class="cls-1" d="M39.51,35.65H33.36a1.81,1.81,0,0,1,0-3.62h6.15a1.81,1.81,0,1,1,0,3.62Z"/><path class="cls-1" d="M51.7,35.65h-6a1.81,1.81,0,1,1,0-3.62h6a1.81,1.81,0,0,1,0,3.62Z"/><path class="cls-1" d="M27.21,45.83h-6a1.81,1.81,0,0,1,0-3.62h6a1.81,1.81,0,1,1,0,3.62Z"/><path class="cls-1" d="M39.51,45.83H33.36a1.81,1.81,0,0,1,0-3.62h6.15a1.81,1.81,0,1,1,0,3.62Z"/><path class="cls-1" d="M51.7,45.83h-6a1.81,1.81,0,0,1,0-3.62h6a1.81,1.81,0,0,1,0,3.62Z"/></g></g></svg>