<svg xmlns="http://www.w3.org/2000/svg" viewBox="0 0 32.35 34.74"><defs><style>.cls-1{fill:#007aff;}</style></defs><g id="Layer_2" data-name="Layer 2"><g id="Isolation_Mode" data-name="Isolation Mode"><path class="cls-1" d="M16.18,18.57h0C7.1,18.57,0,14.49,0,9.29S7.1,0,16.17,0,32.35,4.08,32.35,9.28,25.25,18.56,16.18,18.57Zm0-16.32c-7.56,0-13.93,3.22-13.93,7s6.38,7,13.92,7v0c7.54,0,13.92-3.23,13.92-7S23.72,2.25,16.18,2.25Z"/><path class="cls-1" d="M16.17,26.44A25.32,25.32,0,0,1,5,24.1c-3.24-1.64-5-3.9-5-6.37a5.25,5.25,0,0,1,.52-2.25,1.12,1.12,0,1,1,2,1,3,3,0,0,0-.3,1.29c0,1.55,1.38,3.15,3.79,4.36a23,23,0,0,0,10.13,2.1h0c8.33,0,13.92-3.35,13.92-6.47a3,3,0,0,0-.34-1.37,1.12,1.12,0,1,1,2-1,5.16,5.16,0,0,1,.58,2.38c0,4.89-7.1,8.72-16.17,8.72Z"/><path class="cls-1" d="M16.17,34.74A25.32,25.32,0,0,1,5,32.4C1.79,30.76,0,28.5,0,26a5.24,5.24,0,0,1,.52-2.24,1.13,1.13,0,1,1,2,1A3,3,0,0,0,2.25,26c0,1.56,1.39,3.15,3.8,4.37a23.07,23.07,0,0,0,10.12,2.1h0c8.33,0,13.92-3.35,13.92-6.47a3,3,0,0,0-.34-1.37,1.13,1.13,0,1,1,2-1A5.23,5.23,0,0,1,32.35,26c0,4.88-7.1,8.72-16.17,8.72Z"/></g></g></svg>