<svg xmlns="http://www.w3.org/2000/svg" viewBox="0 0 23.15 33.62"><defs><style>.cls-1{fill:#007aff;}</style></defs><g id="Layer_2" data-name="Layer 2"><g id="Isolation_Mode" data-name="Isolation Mode"><path class="cls-1" d="M6.34,30.77l-.68-2.46a.73.73,0,0,0-.39-.47.76.76,0,0,0-.33-.08.87.87,0,0,0-.28,0l-2.36,1,4.25-8.58A2.61,2.61,0,0,0,5.19,20H5L.08,29.86a.76.76,0,0,0,.12.85.74.74,0,0,0,.83.18l3.41-1.37,1,3.54a.73.73,0,0,0,.65.55h.07a.75.75,0,0,0,.68-.42l4.6-9.28a4.22,4.22,0,0,1-1.51-.34Z"/><path class="cls-1" d="M23.07,29.86,18.17,20H18a2.7,2.7,0,0,0-1.36.22l4.25,8.58-2.36-1a.75.75,0,0,0-.62,0,.76.76,0,0,0-.39.47l-.67,2.46-3.57-7.19a4.16,4.16,0,0,1-1.5.34l4.6,9.28a.75.75,0,0,0,.67.42h.08a.76.76,0,0,0,.65-.55l1-3.54,3.41,1.37a.74.74,0,0,0,.83-.18A.76.76,0,0,0,23.07,29.86Z"/><path class="cls-1" d="M11.41,23.92h.33l-.17-.34Z"/><path class="cls-1" d="M5.48,18.45a3.4,3.4,0,0,0-.45,0,2.59,2.59,0,0,1-2.37-4.1,4.07,4.07,0,0,0,0-4.83A2.58,2.58,0,0,1,5,5.46,4.09,4.09,0,0,0,9.21,3a2.59,2.59,0,0,1,4.73,0,4.07,4.07,0,0,0,4.18,2.42,2.57,2.57,0,0,1,2.36,4.09,4.1,4.1,0,0,0,0,4.83,2.54,2.54,0,0,1,.16,2.82,2.58,2.58,0,0,1-2.52,1.28,4.12,4.12,0,0,0-.7,0L18.17,20a4.08,4.08,0,0,0,3.52-6.49,2.58,2.58,0,0,1,0-3.05A4.09,4.09,0,0,0,18,4a2.59,2.59,0,0,1-2.65-1.52,4.08,4.08,0,0,0-7.47,0A2.59,2.59,0,0,1,5.19,4a4.09,4.09,0,0,0-3.74,6.48,2.57,2.57,0,0,1,0,3.05A4.08,4.08,0,0,0,5,20l.75-1.51Z"/><path class="cls-1" d="M11,22.36l.6,1.22.61-1.22a2.6,2.6,0,0,1-.61.07A2.52,2.52,0,0,1,11,22.36Z"/><path class="cls-1" d="M9.21,20.89a4.1,4.1,0,0,0-2-2.05l-.67,1.35A2.61,2.61,0,0,1,7.84,21.5,4.06,4.06,0,0,0,9.9,23.58l.67-1.35A2.5,2.5,0,0,1,9.21,20.89Z"/><path class="cls-1" d="M13.94,20.89a2.5,2.5,0,0,1-1.36,1.34l.66,1.35a4,4,0,0,0,2.07-2.08,2.61,2.61,0,0,1,1.29-1.31l-.66-1.34A4.06,4.06,0,0,0,13.94,20.89Z"/><path class="cls-1" d="M6.55,20.19l.67-1.35a4.19,4.19,0,0,0-1.49-.37L5,20h.21A2.61,2.61,0,0,1,6.55,20.19Z"/><path class="cls-1" d="M11,22.36a2.67,2.67,0,0,1-.4-.13L9.9,23.58a4.22,4.22,0,0,0,1.51.34l.16-.34Z"/><path class="cls-1" d="M12.58,22.23a3.7,3.7,0,0,1-.4.13l-.61,1.22.17.34a4.16,4.16,0,0,0,1.5-.34Z"/><path class="cls-1" d="M15.94,18.85l.66,1.34A2.7,2.7,0,0,1,18,20h.21l-.75-1.52A4.32,4.32,0,0,0,15.94,18.85Z"/><path class="cls-1" d="M8.4,12.21a.72.72,0,0,1,.06-.29l-1.63,3.5a.75.75,0,0,0,.06.71l.49-1L8,16.32a.7.7,0,0,0,.22-.26L9.63,13H9.15A.75.75,0,0,1,8.4,12.21Z"/><path class="cls-1" d="M6.89,16.13a.7.7,0,0,0,.3.29.74.74,0,0,0,.32.07A.71.71,0,0,0,8,16.32l-.59-1.19Z"/><path class="cls-1" d="M16.26,16.13a.75.75,0,0,0,.06-.71L12.25,6.7a.79.79,0,0,0-1.36,0L8.46,11.92a.76.76,0,0,1,.69-.46h1.18L11.57,8.8l1.25,2.66H14A.75.75,0,1,1,14,13h-.47L15,16.06a.78.78,0,0,0,.21.26l.59-1.19Z"/><path class="cls-1" d="M16,16.42a.67.67,0,0,0,.31-.29l-.5-1-.59,1.19A.74.74,0,0,0,16,16.42Z"/><polygon class="cls-1" points="10.33 11.46 9.63 12.96 13.52 12.96 12.82 11.46 10.33 11.46"/><path class="cls-1" d="M9.15,11.46a.76.76,0,0,0-.69.46h0a.72.72,0,0,0-.06.29.75.75,0,0,0,.75.75h.48l.7-1.5Z"/><path class="cls-1" d="M14.74,12.21a.75.75,0,0,0-.75-.75H12.82l.7,1.5H14A.74.74,0,0,0,14.74,12.21Z"/></g></g></svg>