<svg xmlns="http://www.w3.org/2000/svg" viewBox="0 0 96.56 121.26"><defs><style>.cls-1{fill:#dedede;}</style></defs><g id="레이어_2" data-name="레이어 2"><g id="레이어_1-2" data-name="레이어 1"><polygon class="cls-1" points="6.5 109.61 6.99 109.61 6.99 103.11 6.5 103.11 6.5 86.18 0 86.18 0 109.84 6.5 109.84 6.5 109.61"/><path class="cls-1" d="M31.87,20.74h7.89v-6.5h-6.6v-.17h-6.5v1.46A5.22,5.22,0,0,0,31.87,20.74Z"/><path class="cls-1" d="M56.8,14.24v6.5h7.89a5.22,5.22,0,0,0,5.21-5.21V14.07H63.4v.17Z"/><path class="cls-1" d="M8,114.76a1.5,1.5,0,0,1-1.48-1.48v-3.44H0v3.44a8,8,0,0,0,8,8h3.09v-6.5Z"/><rect class="cls-1" x="39.76" y="14.24" width="17.04" height="6.5"/><rect class="cls-1" y="58.68" width="6.5" height="27.5"/><rect class="cls-1" x="60.09" y="114.76" width="25.07" height="6.5"/><path class="cls-1" d="M90.06,109.84v3.44a1.5,1.5,0,0,1-1.48,1.48H85.15v6.5h3.43a8,8,0,0,0,8-8v-3.44Z"/><rect class="cls-1" x="11.07" y="114.76" width="25.37" height="6.5"/><rect class="cls-1" x="36.44" y="114.76" width="23.64" height="6.5"/><path class="cls-1" d="M63.4,6.5v7.57h6.5V8.63H88.58a1.47,1.47,0,0,1,.66.17V2.17c-.22,0-.44,0-.66,0H68.87A5.2,5.2,0,0,0,64.69,0H61.41V6.5Z"/><polygon class="cls-1" points="90.06 103.11 89.24 103.11 89.24 109.61 90.06 109.61 90.06 109.84 96.56 109.84 96.56 86.18 90.06 86.18 90.06 103.11"/><rect class="cls-1" x="90.06" y="58.68" width="6.5" height="27.5"/><path class="cls-1" d="M8,8.63H26.66v5.44h6.5V6.5h2V0H31.87a5.2,5.2,0,0,0-4.18,2.13H8A8,8,0,0,0,7,2.2V9A1.47,1.47,0,0,1,8,8.63Z"/><rect class="cls-1" x="35.16" width="26.25" height="6.5"/><rect class="cls-1" x="61.41" y="103.11" width="27.83" height="6.5"/><path class="cls-1" d="M90.06,10.11v21h6.5v-21a8,8,0,0,0-7.32-7.94V8.8A1.48,1.48,0,0,1,90.06,10.11Z"/><rect class="cls-1" x="90.06" y="31.1" width="6.5" height="27.58"/><path class="cls-1" d="M6.5,10.11A1.46,1.46,0,0,1,7,9V2.2a8,8,0,0,0-7,7.91v21H6.5Z"/><rect class="cls-1" y="31.1" width="6.5" height="27.58"/><rect class="cls-1" x="35.16" y="103.11" width="26.25" height="6.5"/><rect class="cls-1" x="6.99" y="103.11" width="28.17" height="6.5"/><path class="cls-1" d="M28.05,55a3.25,3.25,0,0,0-4.68,4.51l9,9.31,4.29-4.91Z"/><path class="cls-1" d="M43.59,71.09l-6.94-7.2L32.36,68.8l9,9.36a3.29,3.29,0,0,0,2.34,1h.09A3.27,3.27,0,0,0,46.17,78l2-2.29-4.53-4.69Z"/><polygon class="cls-1" points="43.63 71.06 48.16 75.75 57.12 65.45 52.59 60.76 43.63 71.06"/><path class="cls-1" d="M72.85,42.44a3.26,3.26,0,0,0-4.59.31l-7.13,8.19,4.53,4.7L73.17,47A3.25,3.25,0,0,0,72.85,42.44Z"/><polygon class="cls-1" points="52.59 60.76 57.12 65.45 65.67 55.64 61.13 50.94 52.59 60.76"/></g></g></svg>