<svg xmlns="http://www.w3.org/2000/svg" width="174" height="54" viewBox="0 0 174 54">
  <g id="btn_car_search" transform="translate(-448 -65)">
    <g id="패스_20345" data-name="패스 20345" transform="translate(448 65)" fill="#fff">
      <path d="M 147 52.5 L 27 52.5 C 23.55686378479004 52.5 20.2175235748291 51.82600021362305 17.07470512390137 50.4967041015625 C 14.03836345672607 49.21243286132813 11.31113624572754 47.37359237670898 8.968772888183594 45.03122711181641 C 6.62640905380249 42.68886184692383 4.787568092346191 39.96163558959961 3.503295421600342 36.92529678344727 C 2.174000024795532 33.78247833251953 1.5 30.44313621520996 1.5 27 C 1.5 23.55686378479004 2.174000024795532 20.2175235748291 3.503295421600342 17.07470512390137 C 4.787568092346191 14.03836345672607 6.62640905380249 11.31113624572754 8.968772888183594 8.968772888183594 C 11.31113624572754 6.62640905380249 14.03836345672607 4.787568092346191 17.07470512390137 3.503295421600342 C 20.2175235748291 2.174000024795532 23.55686378479004 1.5 27 1.5 L 147 1.5 C 150.4431304931641 1.5 153.782470703125 2.174000024795532 156.92529296875 3.503295421600342 C 159.9616394042969 4.787568092346191 162.6888580322266 6.62640905380249 165.0312347412109 8.968772888183594 C 167.3735961914063 11.31113624572754 169.2124328613281 14.03836345672607 170.4967041015625 17.07470512390137 C 171.8260040283203 20.2175235748291 172.5 23.55686378479004 172.5 27 C 172.5 28.97920417785645 172.2750701904297 30.88372802734375 171.7921142578125 32.99361419677734 C 170.559814453125 38.39956665039063 167.4385681152344 43.3323860168457 163.0030517578125 46.88475036621094 C 160.7834930419922 48.6623649597168 158.3052673339844 50.04852294921875 155.63720703125 51.0047721862793 C 152.8689117431641 51.99693298339844 149.9629364013672 52.5 147 52.5 Z" stroke="none"/>
      <path d="M 27 3 C 23.75869750976563 3 20.61595153808594 3.634151458740234 17.6590576171875 4.884799957275391 C 14.80149841308594 6.093448638916016 12.23452758789063 7.824348449707031 10.02944946289063 10.02942657470703 C 7.824356079101563 12.23452377319336 6.09344482421875 14.80149841308594 4.884796142578125 17.65902328491211 C 3.6341552734375 20.61595153808594 3 23.75869941711426 3 27 C 3 30.24130058288574 3.6341552734375 33.38404846191406 4.884796142578125 36.34097290039063 C 6.09344482421875 39.19850158691406 7.824356079101563 41.76547622680664 10.02944946289063 43.97057342529297 C 12.23452758789063 46.17565155029297 14.80149841308594 47.90655136108398 17.6590576171875 49.11520004272461 C 20.61595153808594 50.36584854125977 23.75869750976563 51 27 51 L 147 51 C 149.7899475097656 51 152.5256500244141 50.52652359008789 155.1311187744141 49.59272384643555 C 157.6426239013672 48.69260025024414 159.9756469726563 47.3875732421875 162.0653686523438 45.71395111083984 C 166.2374572753906 42.37257385253906 169.1723327636719 37.73712539672852 170.3298950195313 32.65889739990234 C 170.7870788574219 30.66172409057617 171 28.86355018615723 171 27 C 171 23.75869941711426 170.3658447265625 20.61595153808594 169.1152038574219 17.65902328491211 C 167.9065551757813 14.80149841308594 166.1756439208984 12.23452377319336 163.9705505371094 10.02942657470703 C 161.7654724121094 7.824348449707031 159.1985015869141 6.093448638916016 156.3409423828125 4.884799957275391 C 153.3840484619141 3.634151458740234 150.2413024902344 3 147 3 L 27 3 M 27 0 L 147 0 C 161.9116821289063 0 174 12.08829879760742 174 27 C 174 29.07272529602051 173.7664184570313 31.09090042114258 173.2542724609375 33.32830047607422 C 170.5848693847656 45.03867340087891 159.8389434814453 54 147 54 L 27 54 C 12.08831787109375 54 0 41.91170120239258 0 27 C 0 12.08829879760742 12.08831787109375 0 27 0 Z" stroke="none" fill="#373737"/>
    </g>
    <text id="차종으로_선택" data-name="차종으로 선택" transform="translate(535 101)" fill="#222" font-size="23" font-family="NotoSansKR-Medium, Noto Sans KR" font-weight="500" letter-spacing="-0.085em"><tspan x="-60.203" y="0">차종으로 선택</tspan></text>
  </g>
</svg>
