<svg xmlns="http://www.w3.org/2000/svg" width="34.2" height="33.199" viewBox="0 0 34.2 33.199">
  <path id="icn_calendar" d="M5.343,34A5.348,5.348,0,0,1,0,28.657V10.229A5.351,5.351,0,0,1,4.857,4.907V2.457a1.457,1.457,0,1,1,2.914,0V4.885h7.772V2.457a1.457,1.457,0,0,1,2.914,0V4.885h7.771V2.457a1.457,1.457,0,1,1,2.914,0v2.45A5.351,5.351,0,0,1,34,10.229V28.657A5.348,5.348,0,0,1,28.657,34ZM2.914,10.229V28.657a2.431,2.431,0,0,0,2.429,2.428H28.657a2.431,2.431,0,0,0,2.429-2.428V10.229A2.432,2.432,0,0,0,28.657,7.8H5.343A2.432,2.432,0,0,0,2.914,10.229Zm19.914,8.715a1.943,1.943,0,1,1,1.943,1.943A1.944,1.944,0,0,1,22.829,18.943Zm-7.772,0A1.943,1.943,0,1,1,17,20.886,1.944,1.944,0,0,1,15.056,18.943Zm-7.771,0a1.943,1.943,0,1,1,1.943,1.943A1.944,1.944,0,0,1,7.286,18.943Z" transform="translate(0.1 -0.9)" fill="#fff" stroke="#fff" stroke-width="0.2"/>
</svg>
