<svg xmlns="http://www.w3.org/2000/svg" width="46" height="46" viewBox="0 0 46 46">
  <path id="icn_calendar_big" d="M7.229,46A7.237,7.237,0,0,1,0,38.771V12.487a7.239,7.239,0,0,1,6.571-7.2V1.971a1.971,1.971,0,0,1,3.942,0V5.258H21.028V1.971a1.971,1.971,0,0,1,3.943,0V5.258H35.487V1.971a1.971,1.971,0,0,1,3.942,0V5.287A7.239,7.239,0,0,1,46,12.487V38.771A7.237,7.237,0,0,1,38.771,46ZM3.942,12.487V38.771a3.29,3.29,0,0,0,3.287,3.287H38.771a3.29,3.29,0,0,0,3.287-3.287V12.487A3.29,3.29,0,0,0,38.771,9.2H7.229A3.29,3.29,0,0,0,3.942,12.487ZM30.886,25.629a2.629,2.629,0,1,1,2.629,2.629A2.629,2.629,0,0,1,30.886,25.629Zm-10.516,0A2.629,2.629,0,1,1,23,28.258,2.629,2.629,0,0,1,20.371,25.629Zm-10.514,0a2.629,2.629,0,1,1,2.629,2.629A2.63,2.63,0,0,1,9.857,25.629Z" fill="#fff"/>
</svg>
