<svg xmlns="http://www.w3.org/2000/svg" width="76" height="76" viewBox="0 0 76 76">
  <g id="btn_call_mini" transform="translate(-632 -82)">
    <rect id="사각형_732" data-name="사각형 732" width="76" height="76" transform="translate(632 82)" fill="#1d4cd8" opacity="0"/>
    <g id="그룹_650" data-name="그룹 650" transform="translate(655 105)">
      <g id="그룹_452" data-name="그룹 452" transform="translate(0 0)">
        <path id="패스_1959" data-name="패스 1959" d="M0,22.5v5.833A1.661,1.661,0,0,0,1.667,30,28.331,28.331,0,0,0,30,1.667,1.666,1.666,0,0,0,28.333,0H22.5a1.661,1.661,0,0,0-1.667,1.667,18.973,18.973,0,0,1-.95,5.95,1.672,1.672,0,0,0,.408,1.692l3.667,3.683A25.1,25.1,0,0,1,12.975,23.967L9.308,20.292a1.672,1.672,0,0,0-1.692-.408,18.973,18.973,0,0,1-5.95.95A1.661,1.661,0,0,0,0,22.5Z" transform="translate(0 0)" fill="#222"/>
      </g>
    </g>
  </g>
</svg>
