<svg xmlns="http://www.w3.org/2000/svg" width="72" height="72" viewBox="0 0 72 72">
  <g id="map_btn_gps" transform="translate(-607 -945)">
    <g id="사각형_28" data-name="사각형 28" transform="translate(607 945)" fill="#fff" stroke="#d4d4d4" stroke-width="2">
      <rect width="72" height="72" rx="9" stroke="none"/>
      <rect x="1" y="1" width="70" height="70" rx="8" fill="none"/>
    </g>
    <path id="패스_431" data-name="패스 431" d="M20.667,14.309a6.358,6.358,0,1,0,6.358,6.358A6.365,6.365,0,0,0,20.667,14.309Zm0,9.486A3.128,3.128,0,1,1,23.8,20.667,3.132,3.132,0,0,1,20.667,23.8Zm19.052-4.743H36.49A15.934,15.934,0,0,0,22.282,4.844V1.615a1.615,1.615,0,1,0-3.229,0v3.23A15.934,15.934,0,0,0,4.844,19.052H1.615a1.615,1.615,0,1,0,0,3.229h3.23A15.934,15.934,0,0,0,19.052,36.49v3.23a1.615,1.615,0,0,0,3.229,0V36.49A15.934,15.934,0,0,0,36.49,22.282h3.23a1.615,1.615,0,0,0,0-3.229ZM20.667,33.342A12.675,12.675,0,1,1,33.342,20.667,12.689,12.689,0,0,1,20.667,33.342Z" transform="translate(622.333 960.333)" fill="#222"/>
  </g>
</svg>
