<svg xmlns="http://www.w3.org/2000/svg" width="76" height="76" viewBox="0 0 76 76">
  <g id="btn_ent_share_bk" transform="translate(-641 -82)">
    <rect id="사각형_2452" data-name="사각형 2452" width="76" height="76" transform="translate(641 82)" fill="#1d4cd8" opacity="0"/>
    <g id="그룹_4014" data-name="그룹 4014" transform="translate(642 102)">
      <path id="패스_20190" data-name="패스 20190" d="M335.872,11.08a5.54,5.54,0,1,1,5.54-5.54A5.547,5.547,0,0,1,335.872,11.08Zm0-8.864A3.324,3.324,0,1,0,339.2,5.54,3.328,3.328,0,0,0,335.872,2.216Z" transform="translate(-287.912)" fill="#222" stroke="#222" stroke-width="1"/>
      <path id="패스_20191" data-name="패스 20191" d="M335.872,363.08a5.54,5.54,0,1,1,5.54-5.54A5.547,5.547,0,0,1,335.872,363.08Zm0-8.864a3.324,3.324,0,1,0,3.324,3.324A3.328,3.328,0,0,0,335.872,354.216Z" transform="translate(-287.912 -327.625)" fill="#222" stroke="#222" stroke-width="1"/>
      <path id="패스_20192" data-name="패스 20192" d="M26.54,187.08a5.54,5.54,0,1,1,5.54-5.54A5.546,5.546,0,0,1,26.54,187.08Zm0-8.864a3.324,3.324,0,1,0,3.324,3.324A3.328,3.328,0,0,0,26.54,178.216Z" transform="translate(0 -163.812)" fill="#222" stroke="#222" stroke-width="1"/>
      <path id="패스_20193" data-name="패스 20193" d="M141.8,105.591a1.107,1.107,0,0,1-.55-2.07l13.708-7.815a1.108,1.108,0,0,1,1.1,1.925l-13.708,7.815A1.11,1.11,0,0,1,141.8,105.591Z" transform="translate(-111.401 -88.942)" fill="#222" stroke="#222" stroke-width="1"/>
      <path id="패스_20194" data-name="패스 20194" d="M155.524,281.58a1.1,1.1,0,0,1-.547-.146l-13.708-7.815a1.108,1.108,0,0,1,1.1-1.925l13.707,7.815a1.108,1.108,0,0,1-.549,2.071Z" transform="translate(-111.421 -252.744)" fill="#222" stroke="#222" stroke-width="1"/>
    </g>
  </g>
</svg>
