<svg id="btn_com_home" xmlns="http://www.w3.org/2000/svg" width="76" height="76" viewBox="0 0 76 76">
  <rect id="사각형_2750" data-name="사각형 2750" width="76" height="76" fill="red" opacity="0"/>
  <g id="그룹_4086" data-name="그룹 4086" transform="translate(19.5 19.551)">
    <path id="패스_20260" data-name="패스 20260" d="M32.357,38.642H6.643A5.7,5.7,0,0,1,1,32.907V13.524A5.749,5.749,0,0,1,3.957,8.515L16.808,1.39a5.549,5.549,0,0,1,5.384,0L35.043,8.478A5.749,5.749,0,0,1,38,13.486V32.907A5.7,5.7,0,0,1,32.357,38.642ZM19.482,3.193a3.146,3.146,0,0,0-1.5.388l-12.851,7.1a3.238,3.238,0,0,0-1.663,2.842V32.907a3.2,3.2,0,0,0,3.179,3.231H32.357A3.206,3.206,0,0,0,35.5,32.907V13.524a3.238,3.238,0,0,0-1.663-2.842l-12.814-7.1A3.144,3.144,0,0,0,19.482,3.193Z" transform="translate(-1 -0.694)" fill="#222" stroke="#222" stroke-width="0.9"/>
    <path id="패스_20261" data-name="패스 20261" d="M12.245,24.01h9.8a1.226,1.226,0,0,1,1.225,1.225h0a1.226,1.226,0,0,1-1.225,1.225h-9.8a1.226,1.226,0,0,1-1.225-1.225h0A1.226,1.226,0,0,1,12.245,24.01Z" transform="translate(1.359 3.344)" fill="#222" stroke="#222" stroke-width="0.6"/>
  </g>
</svg>
