<svg xmlns="http://www.w3.org/2000/svg" width="58" height="58" viewBox="0 0 58 58">
    <g id="navi_03_nor" transform="translate(-414 -3655)">
        <path id="패스_20265" fill="#222" d="M26.339 24.555a4.483 4.483 0 0 1-4.478-4.478V4.726a.32.32 0 0 0-.233-.308 3.427 3.427 0 0 1-2.486-3.265v-4.264a3.415 3.415 0 0 1 3.412-3.411h4.051a.32.32 0 0 0 .271-.151.319.319 0 0 0 .015-.31 5.889 5.889 0 0 1-.607-2.628 5.507 5.507 0 0 1 5.389-5.545c4.054 0 6.546 3.1 7.921 5.694a.32.32 0 0 0 .283.17.32.32 0 0 0 .283-.17c1.375-2.6 3.867-5.694 7.926-5.694a5.505 5.505 0 0 1 5.384 5.541 5.912 5.912 0 0 1-.607 2.633.32.32 0 0 0 .015.31.321.321 0 0 0 .272.151h4.05a3.425 3.425 0 0 1 3.358 3.411v4.264a3.427 3.427 0 0 1-2.486 3.264.319.319 0 0 0-.232.308v15.352a4.483 4.483 0 0 1-4.478 4.478zm15.139-19.99a.32.32 0 0 0-.32.32v16.792a.32.32 0 0 0 .32.32h11.833a1.933 1.933 0 0 0 1.972-1.919V4.885a.32.32 0 0 0-.32-.32zm-17 15.7A1.922 1.922 0 0 0 26.392 22h11.887a.32.32 0 0 0 .32-.32V4.885a.32.32 0 0 0-.32-.32H24.74a.32.32 0 0 0-.32.32v15.193a.315.315 0 0 0 .063.189zm17-24.231a.32.32 0 0 0-.32.32v5.33a.32.32 0 0 0 .32.32H57.2a.854.854 0 0 0 .852-.853v-4.262a.854.854 0 0 0-.852-.853zm-18.923 0a.854.854 0 0 0-.853.853v4.267a.854.854 0 0 0 .853.853h15.724a.32.32 0 0 0 .32-.32v-5.33a.32.32 0 0 0-.32-.32zm9.1-8.688a2.948 2.948 0 0 0-2.811 2.994v.047a3 3 0 0 0 2.806 3.091h6.042a.32.32 0 0 0 .266-.142.321.321 0 0 0 .03-.3c-.881-2.124-2.873-5.687-6.319-5.687zm16.431 0c-2.533 0-4.7 1.947-6.264 5.631a.318.318 0 0 0 .028.3.319.319 0 0 0 .267.143h6.023a3 3 0 0 0 2.825-3.1 2.942 2.942 0 0 0-2.812-2.972z" data-name="패스 20265" transform="translate(403.152 3679.157)"/>
    </g>
</svg>
