<svg xmlns="http://www.w3.org/2000/svg" width="58" height="58" viewBox="0 0 58 58">
    <defs>
        <style>
            .cls-2{fill:#1d4cd8}
        </style>
    </defs>
    <g id="navi_02_sel" transform="translate(9422 6437)">
        <g id="그룹_4099" transform="translate(-9413 -6428.979)">
            <path id="패스_20244" d="M34.143 37.761H6.941A5.954 5.954 0 0 1 1 31.833V11h39.084v20.833a5.954 5.954 0 0 1-5.941 5.928zM3.606 13.606v18.227a3.347 3.347 0 0 0 3.335 3.322h27.2a3.347 3.347 0 0 0 3.335-3.322V13.606z" class="cls-2" transform="translate(0 2.731)"/>
            <path id="패스_20245" d="M40.084 15.725H1V8.967A5.954 5.954 0 0 1 6.941 3h27.2a5.954 5.954 0 0 1 5.941 5.967zM3.606 13.12h33.872V8.967a3.349 3.349 0 0 0-3.335-3.361H6.941a3.349 3.349 0 0 0-3.335 3.361z" class="cls-2" transform="translate(0 .612)"/>
            <rect id="사각형_2641" width="2.606" height="7.895" class="cls-2" rx="1" transform="translate(8.739 .98)"/>
            <path id="패스_20246" d="M24.363 1.98a1.3 1.3 0 0 1 1.3 1.3v5.292a1.3 1.3 0 0 1-1.3 1.3 1.3 1.3 0 0 1-1.3-1.3V3.283a1.3 1.3 0 0 1 1.3-1.303z" class="cls-2" transform="translate(6.68 -1)"/>
            <path id="패스_20247" d="M16.3 1.98a1.3 1.3 0 0 1 1.3 1.3v5.292a1.3 1.3 0 0 1-1.3 1.3 1.3 1.3 0 0 1-1.3-1.3V3.283a1.3 1.3 0 0 1 1.3-1.303z" class="cls-2" transform="translate(4.239 -1)"/>
            <circle id="타원_1012" cx="1.303" cy="1.303" r="1.303" class="cls-2" transform="translate(19.239 25.561)"/>
            <circle id="타원_1013" cx="1.303" cy="1.303" r="1.303" class="cls-2" transform="translate(12.725 25.561)"/>
            <circle id="타원_1014" cx="1.303" cy="1.303" r="1.303" class="cls-2" transform="translate(25.753 25.561)"/>
        </g>
    </g>
</svg>
