<svg xmlns="http://www.w3.org/2000/svg" width="32.303" height="32.154" viewBox="0 0 32.303 32.154">
  <g id="Layer_14" data-name="Layer 14" transform="translate(-441.59 -420.124)">
    <g id="그룹_65" data-name="그룹 65" transform="translate(441.59 420.124)">
      <g id="그룹_62" data-name="그룹 62" transform="translate(0.5 0.499)">
        <path id="패스_192" data-name="패스 192" d="M531.266,484.067c1.765-.818,2.457-4.569.463-5.788l-.023-.122a4.934,4.934,0,0,0,2.042-.871l.042.062c1.445.583,2.7,4.615-.655,6.218a5.685,5.685,0,0,1-.661.268,7.214,7.214,0,0,1-1.192.278Z" transform="translate(-503.966 -460.064)" fill="#ede0e6"/>
        <path id="패스_193" data-name="패스 193" d="M506.427,421.75c2.763.146,3.666,5.1,3.049,9.464-.03.219-.063.448-.1.676a12.1,12.1,0,0,1-.458,1.945l.027.656a5.938,5.938,0,0,1-1.906-.19l-.125-.082c.629-1.65,2.985-10.138-.507-12.2Z" transform="translate(-486.811 -421.745)" fill="#ede0e6"/>
        <path id="패스_194" data-name="패스 194" d="M492.561,439.826l.023.123c1.994,1.22,1.3,4.971-.463,5.788l.016.044c.743,2.024-2.741,2.892-5.328,2.989-4.357.16-9.583.3-11-.908-1.726-1.467-1.788-8.176.336-11.3l0-.537.7-.005,0-.046.122.01c.142-.562.816-2.462,3.722-3.678,3.44-1.441-1-9.531,2.97-10.487a2.56,2.56,0,0,1,.78-.075l-.023.269c3.492,2.062,1.137,10.55.507,12.2l.125.082a5.936,5.936,0,0,0,1.906.19l-.027-.656a12.1,12.1,0,0,0,.458-1.945l.061.011c1.148-.065,7.581.2,8.415,3.36a3.432,3.432,0,0,1-1.253,3.7l0,0A4.934,4.934,0,0,1,492.561,439.826Z" transform="translate(-464.821 -421.734)" fill="#fff"/>
        <path id="패스_195" data-name="패스 195" d="M471.7,483.1c-.733-.022-1.313-.036-1.638-.034-1.7,0-3.087-3.414-3.09-7.618s1.384-7.624,3.085-7.625h.87l0,.537c-2.124,3.128-2.062,9.837-.336,11.3,1.415,1.2,6.641,1.068,11,.908,2.588-.1,6.072-.965,5.328-2.989a7.224,7.224,0,0,0,1.192-.278l.684.029c.332,1.518-.366,5.881-6.08,6C481.349,483.368,474.966,483.19,471.7,483.1Z" transform="translate(-459.607 -453.534)" fill="#ede0e6"/>
        <path id="패스_196" data-name="패스 196" d="M448.536,498.181a.951.951,0,1,0,1.156.925A1.056,1.056,0,0,0,448.536,498.181Zm5.126,1.856c.325,0,.9.012,1.638.034v.026a2.679,2.679,0,0,1-2.106,1.565l-6.223-.219c-2.077,0-3.765-3.893-3.768-8.967a19.254,19.254,0,0,0,7.37-.056C450.575,496.623,451.962,500.035,453.662,500.037Z" transform="translate(-443.202 -470.506)" fill="#f9bb79"/>
        <path id="패스_197" data-name="패스 197" d="M455.227,464.44l-.7.005h-.87c-1.7,0-3.084,3.416-3.085,7.625a19.254,19.254,0,0,1-7.37.056c0-5.08,1.686-9.2,3.764-9.2h6.272a2.638,2.638,0,0,1,1.987,1.463Z" transform="translate(-443.202 -450.158)" fill="#fce370"/>
      </g>
      <g id="그룹_64" data-name="그룹 64" transform="translate(0 0)">
        <path id="패스_198" data-name="패스 198" d="M481.184,482.715c-1.959,0-7.506-.155-10.6-.242-.841-.025-1.342-.038-1.622-.034-2.046,0-3.589-3.491-3.592-8.117s1.541-8.123,3.584-8.125h.869l.7-.006h.006a.5.5,0,0,1,.006,1l-.7.006h-.874c-1.221,0-2.584,2.928-2.584,7.125s1.367,7.117,2.59,7.118c.288,0,.8.009,1.653.035,3.125.087,9.625.269,10.988.238a5.78,5.78,0,0,0,4.674-1.938,4.553,4.553,0,0,0,.929-3.46.5.5,0,0,1,.976-.213,5.553,5.553,0,0,1-1.12,4.291c-.8,1.022-2.4,2.254-5.437,2.319C481.5,482.714,481.359,482.715,481.184,482.715Z" transform="translate(-457.995 -451.911)" fill="#560000"/>
        <path id="패스_199" data-name="패스 199" d="M481.16,435.527a.484.484,0,0,1-.066,0,.5.5,0,0,1-.43-.555,2.074,2.074,0,0,1,.044-.219c.155-.615.9-2.717,4.014-4.019,1.33-.557,1.169-2.569,1-4.7-.2-2.447-.418-5.22,2.047-5.812a3.071,3.071,0,0,1,.929-.088,2.866,2.866,0,0,1,2.1,1.131c1.573,1.91,1.841,5.847,1.409,8.9-.03.222-.063.456-.1.689a12.754,12.754,0,0,1-.481,2.031.5.5,0,0,1-.94-.339,11.558,11.558,0,0,0,.436-1.857c.038-.224.07-.446.1-.661.475-3.359-.015-6.7-1.191-8.129a1.888,1.888,0,0,0-1.389-.769,2.145,2.145,0,0,0-.635.062c-1.527.367-1.5,2.044-1.287,4.762.192,2.391.39,4.863-1.608,5.7-2.684,1.123-3.3,2.84-3.43,3.34-.015.061-.022.1-.024.111A.5.5,0,0,1,481.16,435.527Z" transform="translate(-468.548 -420.124)" fill="#560000"/>
        <path id="패스_200" data-name="패스 200" d="M508.875,461.24a6.072,6.072,0,0,1-1.684-.22.5.5,0,1,1,.281-.959,5.385,5.385,0,0,0,1.741.171,6.4,6.4,0,0,0,2.095-.417.5.5,0,0,1,.372.927,7.426,7.426,0,0,1-2.424.488Q509.064,461.24,508.875,461.24Z" transform="translate(-486.607 -447.486)" fill="#560000"/>
        <path id="패스_201" data-name="패스 201" d="M519.532,461.892a.5.5,0,0,1-.048-1,5.982,5.982,0,0,0,.6-.089,4.487,4.487,0,0,0,1.831-.773l.009-.007a2.921,2.921,0,0,0,1.075-3.18c-.729-2.759-6.817-3.048-7.9-2.989a.5.5,0,1,1-.056-1c1.552-.088,8.02.3,8.926,3.732a3.928,3.928,0,0,1-1.422,4.218l-.017.013a5.468,5.468,0,0,1-2.247.962,6.888,6.888,0,0,1-.7.1Z" transform="translate(-491.945 -442.705)" fill="#560000"/>
        <path id="패스_202" data-name="패스 202" d="M529.717,483.658a.5.5,0,0,1-.068-.994l.151-.021a6.79,6.79,0,0,0,1.106-.258,5.178,5.178,0,0,0,.6-.242,3,3,0,0,0,1.851-2.917,2.816,2.816,0,0,0-1.165-2.389.5.5,0,1,1,.374-.926,3.712,3.712,0,0,1,1.79,3.284,4.007,4.007,0,0,1-2.417,3.848,6.089,6.089,0,0,1-.716.291,7.8,7.8,0,0,1-1.278.3l-.156.022A.539.539,0,0,1,529.717,483.658Z" transform="translate(-502.053 -458.591)" fill="#560000"/>
        <path id="패스_203" data-name="패스 203" d="M476.452,463.785a.5.5,0,0,1-.422-.232c-.349-.551-.907-1.212-1.581-1.232a.5.5,0,0,1-.484-.514.509.509,0,0,1,.514-.485,3.092,3.092,0,0,1,2.394,1.7.5.5,0,0,1-.421.767Z" transform="translate(-463.928 -448.551)" fill="#560000"/>
        <path id="패스_204" data-name="패스 204" d="M452.081,480.7l-6.24-.22h0c-1.2,0-2.313-1.025-3.1-2.884a17.441,17.441,0,0,1-1.146-6.582c0-5.436,1.873-9.7,4.263-9.7h6.224l.065,0h.141a.5.5,0,0,1,0,1h-.157l-.068,0h-6.208c-1.544,0-3.264,3.574-3.265,8.7a16.433,16.433,0,0,0,1.067,6.192c.613,1.446,1.415,2.276,2.2,2.276h0l6.241.22c.548,0,1.145-.471,1.662-1.324a.5.5,0,0,1,.854.517C453.71,480.388,452.737,480.7,452.081,480.7Z" transform="translate(-441.59 -448.547)" fill="#560000"/>
        <g id="그룹_63" data-name="그룹 63" transform="translate(4.187 27.235)">
          <path id="패스_205" data-name="패스 205" d="M459.009,510.512a1.179,1.179,0,1,1-1.156-.925A1.063,1.063,0,0,1,459.009,510.512Z" transform="translate(-456.207 -509.088)" fill="#fff"/>
          <path id="패스_206" data-name="패스 206" d="M456.742,510.832A1.553,1.553,0,0,1,455.1,509.4a1.669,1.669,0,0,1,3.3,0v0A1.561,1.561,0,0,1,456.742,510.832Zm0-1.857c-.343,0-.646.2-.646.427,0,.2.266.43.649.431s.655-.228.656-.432C457.4,509.171,457.1,508.976,456.74,508.975Z" transform="translate(-455.095 -507.976)" fill="#560000"/>
        </g>
      </g>
    </g>
  </g>
</svg>
