<svg id="btn_book_call" xmlns="http://www.w3.org/2000/svg" width="41.259" height="41.259" viewBox="0 0 41.259 41.259">
  <g id="그룹_452" data-name="그룹 452" transform="translate(0 0)">
    <path id="패스_1959" data-name="패스 1959" d="M0,30.944v8.023a2.284,2.284,0,0,0,2.292,2.292A38.963,38.963,0,0,0,41.259,2.292,2.291,2.291,0,0,0,38.967,0H30.944a2.284,2.284,0,0,0-2.292,2.292,26.094,26.094,0,0,1-1.307,8.183,2.3,2.3,0,0,0,.562,2.327l5.043,5.066A34.52,34.52,0,0,1,17.844,32.961L12.8,27.907a2.3,2.3,0,0,0-2.327-.562,26.094,26.094,0,0,1-8.183,1.307A2.284,2.284,0,0,0,0,30.944Z" transform="translate(0 0)" fill="#1d4cd8"/>
  </g>
</svg>
