<svg xmlns="http://www.w3.org/2000/svg" width="23.004" height="23.016" viewBox="0 0 23.004 23.016">
  <path id="패스_4785" data-name="패스 4785" d="M9.036,0a.823.823,0,0,0-.805.655V.658l-.8,4L5.059,9.4a.762.762,0,0,0-.079.157l0,.006-.147.294H.82A.821.821,0,0,0,0,10.679H0v11.5A.822.822,0,0,0,.82,23h4.8a.823.823,0,0,0,.131.011A.852.852,0,0,0,5.884,23h13.01a.822.822,0,0,0,.8-.617v-.006L22.977,9.236a.787.787,0,0,0,.024-.2.821.821,0,0,0-.821-.822H13.143V3.285A3.3,3.3,0,0,0,9.857,0H9.036ZM9.71,1.641h.148A1.622,1.622,0,0,1,11.5,3.285V9.036a.821.821,0,0,0,.822.822H21.13l-2.876,11.5H6.572V10.052L8.95,5.3a.8.8,0,0,0,.07-.2V5.09L9.71,1.643ZM1.642,11.5H4.929v9.859H1.642Z" transform="translate(0.002 0.002)" fill="#fff"/>
</svg>
