<svg xmlns="http://www.w3.org/2000/svg" width="44" height="44" viewBox="0 0 44 44">
  <g id="icn_event_t" transform="translate(-51 -475.5)">
    <path id="패스_20267" data-name="패스 20267" d="M21,0A21,21,0,1,1,5.215,34.851,20.711,20.711,0,0,1,0,21,21,21,0,0,1,21,0Z" transform="translate(52 476.5)" fill="#f1f4ff" stroke="#1d4cd8" stroke-width="2"/>
    <g id="noun_Gift_1434240" transform="translate(62.404 487.078)">
      <g id="Group">
        <path id="Compound_Path" data-name="Compound Path" d="M29.857,16.555H27.814a3.118,3.118,0,0,0,.323-1.4A2.93,2.93,0,0,0,25.26,12.2a4.827,4.827,0,0,0-4.14,2.957,4.862,4.862,0,0,0-4.14-2.957A2.93,2.93,0,0,0,14.1,15.157a3.119,3.119,0,0,0,.323,1.4H12.382A1.882,1.882,0,0,0,10.5,18.437v2.151a1.882,1.882,0,0,0,1.371,1.8v7.743a2.42,2.42,0,0,0,2.42,2.42h13.63a2.42,2.42,0,0,0,2.42-2.42V22.389a1.882,1.882,0,0,0,1.371-1.8V18.437a1.882,1.882,0,0,0-1.855-1.882Zm.269,1.882v2.151a.269.269,0,0,1-.269.269H21.926V18.168h7.931A.269.269,0,0,1,30.126,18.437Zm-4.839-4.651A1.317,1.317,0,0,1,26.55,15.13a1.344,1.344,0,0,1-1.264,1.4H22.249c.457-1.075,1.4-2.742,3.011-2.742ZM15.716,15.13a1.317,1.317,0,0,1,1.264-1.344c1.613,0,2.581,1.667,3.038,2.769H16.979a1.344,1.344,0,0,1-1.264-1.4Zm-3.6,3.307a.269.269,0,0,1,.269-.269h7.931v2.688H12.382a.269.269,0,0,1-.269-.269Zm1.371,11.695V22.47h6.829v8.469h-6a.807.807,0,0,1-.807-.807Zm14.41.807H21.926V22.47h6.8v7.662a.807.807,0,0,1-.807.807Z" transform="translate(-10.5 -12.2)" fill="#1d4cd8" stroke="#1d4cd8" stroke-width="0.5"/>
      </g>
    </g>
  </g>
</svg>
