<svg xmlns="http://www.w3.org/2000/svg" width="58" height="58" viewBox="0 0 58 58">
    <defs>
        <style>
            .cls-2{fill:#222;stroke:#222;stroke-width:.3px}
        </style>
    </defs>
    <g id="navi_01_nor" transform="translate(-86 -3655)">
        <g id="noun_Home_2807554" transform="translate(109 3999.163)">
            <g id="Layer_2" data-name="Layer 2" transform="translate(-13 -335.163)">
                <path id="패스_20264" d="M33.936 39.915H6.927A5.94 5.94 0 0 1 1 33.987V13.954a5.927 5.927 0 0 1 3.106-5.177L17.6 1.414a5.914 5.914 0 0 1 5.655 0l13.5 7.325a5.927 5.927 0 0 1 3.106 5.177v20.071a5.94 5.94 0 0 1-5.927 5.927zM20.412 3.277a3.339 3.339 0 0 0-1.579.4l-13.5 7.338a3.339 3.339 0 0 0-1.747 2.938v20.034a3.339 3.339 0 0 0 3.339 3.339h27.011a3.339 3.339 0 0 0 3.3-3.339V13.954a3.339 3.339 0 0 0-1.747-2.938L22.03 3.678a3.339 3.339 0 0 0-1.618-.4z" class="cls-2" data-name="패스 20264" transform="translate(-1 -.694)"/>
                <rect id="사각형_2666" width="12.941" height="2.588" class="cls-2" data-name="사각형 2666" rx="1" transform="translate(12.967 30.175)"/>
            </g>
        </g>
    </g>
</svg>
