<svg xmlns="http://www.w3.org/2000/svg" width="40" height="48" viewBox="0 0 40 48">
  <g id="icn_map" transform="translate(-244.35 -454.618)" opacity="0.9">
    <rect id="사각형_739" data-name="사각형 739" width="40" height="48" transform="translate(244.35 454.618)" fill="#ff3d3d" opacity="0"/>
    <g id="패스_436" data-name="패스 436" transform="translate(194.11 445.491)" fill="none">
      <path d="M70.323,15.127A13.308,13.308,0,0,0,57.24,28.651a13.863,13.863,0,0,0,2.075,7.314l9.858,15.894v.05a1.331,1.331,0,0,0,1.891.346,1.39,1.39,0,0,0,.334-.346v-.05L81.33,35.965A13.806,13.806,0,0,0,77.4,17.273,12.768,12.768,0,0,0,70.323,15.127Z" stroke="none"/>
      <path d="M 70.31968688964844 18.12700653076172 C 64.76296997070313 18.12700653076172 60.24122619628906 22.84830474853516 60.239990234375 28.6518669128418 C 60.23934936523438 30.68966674804688 60.80078887939453 32.67107772827148 61.86474609375 34.38371658325195 L 70.29175567626953 47.97028350830078 L 78.783935546875 34.37832260131836 C 81.83308410644531 29.46656036376953 80.46639251708984 22.91482925415039 75.73625946044922 19.77196502685547 C 74.11646270751953 18.69588470458984 72.24588012695313 18.12706756591797 70.32266235351563 18.12700653076172 L 70.31968688964844 18.12700653076172 M 70.32684326171875 15.12700653076172 C 72.83364868164063 15.1270866394043 75.28770446777344 15.87231063842773 77.39630889892578 17.27311706542969 C 83.4736328125 21.31109619140625 85.23480987548828 29.68035507202148 81.33000946044922 35.96498870849609 L 71.39929962158203 51.85935592651367 L 71.39929962158203 51.90920639038086 C 71.30850982666016 52.04379653930664 71.19522094726563 52.16095733642578 71.06505584716797 52.25567626953125 C 70.82819366455078 52.42665863037109 70.55684661865234 52.50879669189453 70.28816223144531 52.50879669189453 C 69.85964965820313 52.50879669189453 69.43791961669922 52.29986190795898 69.17372894287109 51.90920639038086 L 69.17372894287109 51.85935592651367 L 59.31532287597656 35.96498870849609 C 57.95987701416016 33.78314590454102 57.23918151855469 31.24404525756836 57.239990234375 28.65092468261719 C 57.24159240722656 21.18073654174805 63.09703826904297 15.12700653076172 70.31968688964844 15.12700653076172 C 70.32057189941406 15.12700653076172 70.32177734375 15.12700653076172 70.32266235351563 15.12700653076172 C 70.32418823242188 15.12700653076172 70.3253173828125 15.12700653076172 70.32684326171875 15.12700653076172 Z" stroke="none" fill="#fff"/>
    </g>
    <circle id="타원_55" data-name="타원 55" cx="3.5" cy="3.5" r="3.5" transform="translate(261 471)" fill="#fff"/>
  </g>
</svg>
