<svg id="그룹_650" data-name="그룹 650" xmlns="http://www.w3.org/2000/svg" width="28.658" height="28.658" viewBox="0 0 28.658 28.658">
  <g id="그룹_452" data-name="그룹 452" transform="translate(0 0)">
    <path id="패스_1959" data-name="패스 1959" d="M0,21.493v5.572a1.587,1.587,0,0,0,1.592,1.592A27.063,27.063,0,0,0,28.658,1.592,1.592,1.592,0,0,0,27.066,0H21.493A1.587,1.587,0,0,0,19.9,1.592a18.125,18.125,0,0,1-.907,5.684,1.6,1.6,0,0,0,.39,1.616l3.5,3.519A23.977,23.977,0,0,1,12.394,22.895l-3.5-3.511a1.6,1.6,0,0,0-1.616-.39,18.124,18.124,0,0,1-5.684.908A1.587,1.587,0,0,0,0,21.493Z" transform="translate(0 0)" fill="#222"/>
  </g>
</svg>
